<mxfile host="app.diagrams.net" modified="2023-05-01T06:07:26.821Z" agent="Mozilla/5.0 (Macintosh; Intel Mac OS X 10_15_7) AppleWebKit/537.36 (KHTML, like Gecko) Chrome/112.0.0.0 Safari/537.36" etag="CkzsVymXC0Uucof9Uw1X" version="21.2.3" type="device">
  <diagram name="Página-1" id="GiMFMbDsPktWGJeh5ilQ">
    <mxGraphModel dx="1990" dy="985" grid="1" gridSize="10" guides="1" tooltips="1" connect="1" arrows="1" fold="1" page="1" pageScale="1" pageWidth="827" pageHeight="1169" math="0" shadow="0">
      <root>
        <mxCell id="0" />
        <mxCell id="1" parent="0" />
        <mxCell id="-4G_2_kfRSxBcvjL3f6l-1" value="Medichealt" style="strokeWidth=1;shadow=0;dashed=0;align=center;html=1;shape=mxgraph.mockup.containers.window;align=left;verticalAlign=top;spacingLeft=8;strokeColor2=#008cff;strokeColor3=#c4c4c4;fontColor=#666666;mainText=;fontSize=17;labelBackgroundColor=none;whiteSpace=wrap;" vertex="1" parent="1">
          <mxGeometry x="10" y="40" width="550" height="380" as="geometry" />
        </mxCell>
        <mxCell id="-4G_2_kfRSxBcvjL3f6l-2" value="" style="strokeWidth=1;shadow=0;dashed=0;align=center;html=1;shape=mxgraph.mockup.forms.rrect;rSize=0;strokeColor=#999999;fillColor=#ffffff;" vertex="1" parent="1">
          <mxGeometry x="160" y="90" width="200" height="300" as="geometry" />
        </mxCell>
        <mxCell id="-4G_2_kfRSxBcvjL3f6l-3" value="Sign In" style="strokeWidth=1;shadow=0;dashed=0;align=center;html=1;shape=mxgraph.mockup.forms.anchor;fontSize=12;fontColor=#666666;align=left;resizeWidth=1;spacingLeft=0;" vertex="1" parent="-4G_2_kfRSxBcvjL3f6l-2">
          <mxGeometry width="100" height="20" relative="1" as="geometry">
            <mxPoint x="10" y="10" as="offset" />
          </mxGeometry>
        </mxCell>
        <mxCell id="-4G_2_kfRSxBcvjL3f6l-4" value="" style="shape=line;strokeColor=#ddeeff;strokeWidth=2;html=1;resizeWidth=1;" vertex="1" parent="-4G_2_kfRSxBcvjL3f6l-2">
          <mxGeometry width="180" height="10" relative="1" as="geometry">
            <mxPoint x="10" y="30" as="offset" />
          </mxGeometry>
        </mxCell>
        <mxCell id="-4G_2_kfRSxBcvjL3f6l-5" value="User Name:" style="strokeWidth=1;shadow=0;dashed=0;align=center;html=1;shape=mxgraph.mockup.forms.anchor;fontSize=12;fontColor=#666666;align=left;resizeWidth=1;spacingLeft=0;" vertex="1" parent="-4G_2_kfRSxBcvjL3f6l-2">
          <mxGeometry width="100" height="20" relative="1" as="geometry">
            <mxPoint x="10" y="40" as="offset" />
          </mxGeometry>
        </mxCell>
        <mxCell id="-4G_2_kfRSxBcvjL3f6l-6" value="johndoe" style="strokeWidth=1;shadow=0;dashed=0;align=center;html=1;shape=mxgraph.mockup.forms.rrect;rSize=0;strokeColor=#999999;fontColor=#666666;align=left;spacingLeft=5;resizeWidth=1;" vertex="1" parent="-4G_2_kfRSxBcvjL3f6l-2">
          <mxGeometry width="150" height="25" relative="1" as="geometry">
            <mxPoint x="10" y="60" as="offset" />
          </mxGeometry>
        </mxCell>
        <mxCell id="-4G_2_kfRSxBcvjL3f6l-7" value="Password:" style="strokeWidth=1;shadow=0;dashed=0;align=center;html=1;shape=mxgraph.mockup.forms.anchor;fontSize=12;fontColor=#666666;align=left;resizeWidth=1;spacingLeft=0;" vertex="1" parent="-4G_2_kfRSxBcvjL3f6l-2">
          <mxGeometry width="100" height="20" relative="1" as="geometry">
            <mxPoint x="10" y="95" as="offset" />
          </mxGeometry>
        </mxCell>
        <mxCell id="-4G_2_kfRSxBcvjL3f6l-8" value="********" style="strokeWidth=1;shadow=0;dashed=0;align=center;html=1;shape=mxgraph.mockup.forms.rrect;rSize=0;strokeColor=#999999;fontColor=#666666;align=left;spacingLeft=5;resizeWidth=1;" vertex="1" parent="-4G_2_kfRSxBcvjL3f6l-2">
          <mxGeometry width="150" height="25" relative="1" as="geometry">
            <mxPoint x="10" y="115" as="offset" />
          </mxGeometry>
        </mxCell>
        <mxCell id="-4G_2_kfRSxBcvjL3f6l-9" value="SIGN IN" style="strokeWidth=1;shadow=0;dashed=0;align=center;html=1;shape=mxgraph.mockup.forms.rrect;rSize=5;strokeColor=none;fontColor=#ffffff;fillColor=#66bbff;fontSize=16;fontStyle=1;" vertex="1" parent="-4G_2_kfRSxBcvjL3f6l-2">
          <mxGeometry y="1" width="80" height="30" relative="1" as="geometry">
            <mxPoint x="20" y="-150" as="offset" />
          </mxGeometry>
        </mxCell>
        <mxCell id="-4G_2_kfRSxBcvjL3f6l-10" value="Forgot Password?" style="strokeWidth=1;shadow=0;dashed=0;align=center;html=1;shape=mxgraph.mockup.forms.anchor;fontSize=12;fontColor=#9999ff;align=left;spacingLeft=0;fontStyle=4;resizeWidth=1;" vertex="1" parent="-4G_2_kfRSxBcvjL3f6l-2">
          <mxGeometry y="1" width="150" height="20" relative="1" as="geometry">
            <mxPoint x="10" y="-110" as="offset" />
          </mxGeometry>
        </mxCell>
        <mxCell id="-4G_2_kfRSxBcvjL3f6l-11" value="" style="shape=line;strokeColor=#ddeeff;strokeWidth=2;html=1;resizeWidth=1;" vertex="1" parent="-4G_2_kfRSxBcvjL3f6l-2">
          <mxGeometry y="1" width="180" height="10" relative="1" as="geometry">
            <mxPoint x="10" y="-90" as="offset" />
          </mxGeometry>
        </mxCell>
        <mxCell id="-4G_2_kfRSxBcvjL3f6l-12" value="New User" style="strokeWidth=1;shadow=0;dashed=0;align=center;html=1;shape=mxgraph.mockup.forms.anchor;fontSize=12;fontColor=#666666;align=left;spacingLeft=0;resizeWidth=1;" vertex="1" parent="-4G_2_kfRSxBcvjL3f6l-2">
          <mxGeometry y="1" width="150" height="20" relative="1" as="geometry">
            <mxPoint x="10" y="-70" as="offset" />
          </mxGeometry>
        </mxCell>
        <mxCell id="-4G_2_kfRSxBcvjL3f6l-13" value="SIGN UP" style="strokeWidth=1;shadow=0;dashed=0;align=center;html=1;shape=mxgraph.mockup.forms.rrect;rSize=5;strokeColor=none;fontColor=#ffffff;fillColor=#66bbff;fontSize=16;fontStyle=1;" vertex="1" parent="-4G_2_kfRSxBcvjL3f6l-2">
          <mxGeometry y="1" width="80" height="30" relative="1" as="geometry">
            <mxPoint x="20" y="-50" as="offset" />
          </mxGeometry>
        </mxCell>
        <mxCell id="-4G_2_kfRSxBcvjL3f6l-14" value="Inicio de Sesion" style="text;html=1;strokeColor=none;fillColor=none;align=center;verticalAlign=middle;whiteSpace=wrap;rounded=0;" vertex="1" parent="1">
          <mxGeometry x="10" y="10" width="60" height="30" as="geometry" />
        </mxCell>
        <mxCell id="-4G_2_kfRSxBcvjL3f6l-15" value="Medichealt" style="strokeWidth=1;shadow=0;dashed=0;align=center;html=1;shape=mxgraph.mockup.containers.window;align=left;verticalAlign=top;spacingLeft=8;strokeColor2=#008cff;strokeColor3=#c4c4c4;fontColor=#666666;mainText=;fontSize=17;labelBackgroundColor=none;whiteSpace=wrap;" vertex="1" parent="1">
          <mxGeometry x="10" y="470" width="550" height="430" as="geometry" />
        </mxCell>
        <mxCell id="-4G_2_kfRSxBcvjL3f6l-16" value="Crear usuario" style="text;html=1;strokeColor=none;fillColor=none;align=center;verticalAlign=middle;whiteSpace=wrap;rounded=0;" vertex="1" parent="1">
          <mxGeometry x="10" y="440" width="60" height="30" as="geometry" />
        </mxCell>
        <mxCell id="-4G_2_kfRSxBcvjL3f6l-17" value="********" style="strokeWidth=1;shadow=0;dashed=0;align=center;html=1;shape=mxgraph.mockup.forms.pwField;strokeColor=#999999;mainText=;align=left;fontColor=#666666;fontSize=17;spacingLeft=3;" vertex="1" parent="1">
          <mxGeometry x="185" y="620" width="150" height="30" as="geometry" />
        </mxCell>
        <mxCell id="-4G_2_kfRSxBcvjL3f6l-18" value="Nombre:" style="strokeWidth=1;shadow=0;dashed=0;align=center;html=1;shape=mxgraph.mockup.forms.anchor;fontSize=12;fontColor=#666666;align=left;resizeWidth=1;spacingLeft=0;" vertex="1" parent="1">
          <mxGeometry x="185" y="510" width="100" height="20" as="geometry" />
        </mxCell>
        <mxCell id="-4G_2_kfRSxBcvjL3f6l-19" value="" style="strokeWidth=1;shadow=0;dashed=0;align=center;html=1;shape=mxgraph.mockup.forms.rrect;rSize=0;strokeColor=#999999;fontColor=#666666;align=left;spacingLeft=5;resizeWidth=1;" vertex="1" parent="1">
          <mxGeometry x="185" y="530" width="150" height="25" as="geometry" />
        </mxCell>
        <mxCell id="-4G_2_kfRSxBcvjL3f6l-20" value="Nombre Usuario" style="strokeWidth=1;shadow=0;dashed=0;align=center;html=1;shape=mxgraph.mockup.forms.anchor;fontSize=12;fontColor=#666666;align=left;resizeWidth=1;spacingLeft=0;" vertex="1" parent="1">
          <mxGeometry x="185" y="555" width="100" height="20" as="geometry" />
        </mxCell>
        <mxCell id="-4G_2_kfRSxBcvjL3f6l-21" value="" style="strokeWidth=1;shadow=0;dashed=0;align=center;html=1;shape=mxgraph.mockup.forms.rrect;rSize=0;strokeColor=#999999;fontColor=#666666;align=left;spacingLeft=5;resizeWidth=1;" vertex="1" parent="1">
          <mxGeometry x="185" y="575" width="150" height="25" as="geometry" />
        </mxCell>
        <mxCell id="-4G_2_kfRSxBcvjL3f6l-22" value="Direccion" style="strokeWidth=1;shadow=0;dashed=0;align=center;html=1;shape=mxgraph.mockup.forms.anchor;fontSize=12;fontColor=#666666;align=left;resizeWidth=1;spacingLeft=0;" vertex="1" parent="1">
          <mxGeometry x="185" y="650" width="100" height="20" as="geometry" />
        </mxCell>
        <mxCell id="-4G_2_kfRSxBcvjL3f6l-23" value="" style="strokeWidth=1;shadow=0;dashed=0;align=center;html=1;shape=mxgraph.mockup.forms.rrect;rSize=0;strokeColor=#999999;fontColor=#666666;align=left;spacingLeft=5;resizeWidth=1;" vertex="1" parent="1">
          <mxGeometry x="185" y="670" width="150" height="25" as="geometry" />
        </mxCell>
        <mxCell id="-4G_2_kfRSxBcvjL3f6l-24" value="Contraseña" style="strokeWidth=1;shadow=0;dashed=0;align=center;html=1;shape=mxgraph.mockup.forms.anchor;fontSize=12;fontColor=#666666;align=left;resizeWidth=1;spacingLeft=0;" vertex="1" parent="1">
          <mxGeometry x="185" y="600" width="100" height="20" as="geometry" />
        </mxCell>
        <mxCell id="-4G_2_kfRSxBcvjL3f6l-25" value="Telefono" style="strokeWidth=1;shadow=0;dashed=0;align=center;html=1;shape=mxgraph.mockup.forms.anchor;fontSize=12;fontColor=#666666;align=left;resizeWidth=1;spacingLeft=0;" vertex="1" parent="1">
          <mxGeometry x="185" y="695" width="100" height="20" as="geometry" />
        </mxCell>
        <mxCell id="-4G_2_kfRSxBcvjL3f6l-26" value="" style="strokeWidth=1;shadow=0;dashed=0;align=center;html=1;shape=mxgraph.mockup.forms.rrect;rSize=0;strokeColor=#999999;fontColor=#666666;align=left;spacingLeft=5;resizeWidth=1;" vertex="1" parent="1">
          <mxGeometry x="185" y="715" width="150" height="25" as="geometry" />
        </mxCell>
        <mxCell id="-4G_2_kfRSxBcvjL3f6l-27" value="correo electronico" style="strokeWidth=1;shadow=0;dashed=0;align=center;html=1;shape=mxgraph.mockup.forms.anchor;fontSize=12;fontColor=#666666;align=left;resizeWidth=1;spacingLeft=0;" vertex="1" parent="1">
          <mxGeometry x="185" y="740" width="100" height="20" as="geometry" />
        </mxCell>
        <mxCell id="-4G_2_kfRSxBcvjL3f6l-28" value="" style="strokeWidth=1;shadow=0;dashed=0;align=center;html=1;shape=mxgraph.mockup.forms.rrect;rSize=0;strokeColor=#999999;fontColor=#666666;align=left;spacingLeft=5;resizeWidth=1;" vertex="1" parent="1">
          <mxGeometry x="185" y="760" width="150" height="25" as="geometry" />
        </mxCell>
        <mxCell id="-4G_2_kfRSxBcvjL3f6l-29" value="CUI" style="strokeWidth=1;shadow=0;dashed=0;align=center;html=1;shape=mxgraph.mockup.forms.anchor;fontSize=12;fontColor=#666666;align=left;resizeWidth=1;spacingLeft=0;" vertex="1" parent="1">
          <mxGeometry x="185" y="785" width="100" height="20" as="geometry" />
        </mxCell>
        <mxCell id="-4G_2_kfRSxBcvjL3f6l-30" value="" style="strokeWidth=1;shadow=0;dashed=0;align=center;html=1;shape=mxgraph.mockup.forms.rrect;rSize=0;strokeColor=#999999;fontColor=#666666;align=left;spacingLeft=5;resizeWidth=1;" vertex="1" parent="1">
          <mxGeometry x="185" y="805" width="150" height="25" as="geometry" />
        </mxCell>
        <mxCell id="-4G_2_kfRSxBcvjL3f6l-31" value="Fecha de nacimiento" style="strokeWidth=1;shadow=0;dashed=0;align=center;html=1;shape=mxgraph.mockup.forms.anchor;fontSize=12;fontColor=#666666;align=left;resizeWidth=1;spacingLeft=0;" vertex="1" parent="1">
          <mxGeometry x="185" y="830" width="100" height="20" as="geometry" />
        </mxCell>
        <mxCell id="-4G_2_kfRSxBcvjL3f6l-32" value="" style="strokeWidth=1;shadow=0;dashed=0;align=center;html=1;shape=mxgraph.mockup.forms.rrect;rSize=0;strokeColor=#999999;fontColor=#666666;align=left;spacingLeft=5;resizeWidth=1;" vertex="1" parent="1">
          <mxGeometry x="185" y="850" width="150" height="25" as="geometry" />
        </mxCell>
        <mxCell id="-4G_2_kfRSxBcvjL3f6l-33" value="Crear Usuario" style="strokeWidth=1;shadow=0;dashed=0;align=center;html=1;shape=mxgraph.mockup.forms.rrect;rSize=5;strokeColor=none;fontColor=#ffffff;fillColor=#66bbff;fontSize=16;fontStyle=1;" vertex="1" parent="1">
          <mxGeometry x="374" y="845" width="116" height="30" as="geometry" />
        </mxCell>
        <mxCell id="-4G_2_kfRSxBcvjL3f6l-34" value="Medichealt" style="strokeWidth=1;shadow=0;dashed=0;align=center;html=1;shape=mxgraph.mockup.containers.window;align=left;verticalAlign=top;spacingLeft=8;strokeColor2=#008cff;strokeColor3=#c4c4c4;fontColor=#666666;mainText=;fontSize=17;labelBackgroundColor=none;whiteSpace=wrap;" vertex="1" parent="1">
          <mxGeometry x="630" y="40" width="550" height="380" as="geometry" />
        </mxCell>
        <mxCell id="-4G_2_kfRSxBcvjL3f6l-35" value="Bienvenido Paciente (nombre de usuario)" style="text;html=1;strokeColor=none;fillColor=none;align=center;verticalAlign=middle;whiteSpace=wrap;rounded=0;" vertex="1" parent="1">
          <mxGeometry x="660" y="140" width="280" height="30" as="geometry" />
        </mxCell>
        <mxCell id="-4G_2_kfRSxBcvjL3f6l-36" value="" style="strokeWidth=1;shadow=0;dashed=0;align=center;html=1;shape=mxgraph.mockup.forms.rrect;rSize=0;strokeColor=#999999;" vertex="1" parent="1">
          <mxGeometry x="630" y="70" width="550" height="30" as="geometry" />
        </mxCell>
        <mxCell id="-4G_2_kfRSxBcvjL3f6l-37" value="&lt;span style=&quot;background-color: rgb(153, 255, 255);&quot;&gt;Inicio&lt;/span&gt;" style="strokeColor=inherit;fillColor=inherit;gradientColor=inherit;strokeWidth=1;shadow=0;dashed=0;align=center;html=1;shape=mxgraph.mockup.forms.rrect;rSize=0;fontSize=17;fontColor=#666666;whiteSpace=wrap;" vertex="1" parent="-4G_2_kfRSxBcvjL3f6l-36">
          <mxGeometry width="91.66666666666666" height="30" as="geometry" />
        </mxCell>
        <mxCell id="-4G_2_kfRSxBcvjL3f6l-38" value="Consulta" style="strokeColor=inherit;fillColor=inherit;gradientColor=inherit;strokeWidth=1;shadow=0;dashed=0;align=center;html=1;shape=mxgraph.mockup.forms.rrect;rSize=0;fontSize=17;fontColor=#666666;whiteSpace=wrap;" vertex="1" parent="-4G_2_kfRSxBcvjL3f6l-36">
          <mxGeometry x="91.66666666666666" width="91.66666666666666" height="30" as="geometry" />
        </mxCell>
        <mxCell id="-4G_2_kfRSxBcvjL3f6l-39" value="Examenes" style="strokeColor=inherit;fillColor=inherit;gradientColor=inherit;strokeWidth=1;shadow=0;dashed=0;align=center;html=1;shape=mxgraph.mockup.forms.rrect;rSize=0;fontSize=17;fontColor=#666666;whiteSpace=wrap;" vertex="1" parent="-4G_2_kfRSxBcvjL3f6l-36">
          <mxGeometry x="183.33333333333331" width="91.66666666666666" height="30" as="geometry" />
        </mxCell>
        <mxCell id="-4G_2_kfRSxBcvjL3f6l-40" value="Reportes" style="strokeColor=inherit;fillColor=inherit;gradientColor=inherit;strokeWidth=1;shadow=0;dashed=0;align=center;html=1;shape=mxgraph.mockup.forms.rrect;rSize=0;fontSize=17;fontColor=#666666;whiteSpace=wrap;" vertex="1" parent="-4G_2_kfRSxBcvjL3f6l-36">
          <mxGeometry x="275" width="91.66666666666666" height="30" as="geometry" />
        </mxCell>
        <mxCell id="-4G_2_kfRSxBcvjL3f6l-41" value="" style="strokeColor=inherit;fillColor=inherit;gradientColor=inherit;strokeWidth=1;shadow=0;dashed=0;align=center;html=1;shape=mxgraph.mockup.forms.rrect;rSize=0;fontSize=17;fontColor=#666666;whiteSpace=wrap;" vertex="1" parent="-4G_2_kfRSxBcvjL3f6l-36">
          <mxGeometry x="366.66666666666663" width="91.66666666666666" height="30" as="geometry" />
        </mxCell>
        <mxCell id="-4G_2_kfRSxBcvjL3f6l-42" value="" style="strokeColor=inherit;fillColor=inherit;gradientColor=inherit;strokeWidth=1;shadow=0;dashed=0;align=center;html=1;shape=mxgraph.mockup.forms.rrect;rSize=0;fontSize=17;fontColor=#666666;whiteSpace=wrap;" vertex="1" parent="-4G_2_kfRSxBcvjL3f6l-36">
          <mxGeometry x="458.3333333333333" width="91.66666666666666" height="30" as="geometry" />
        </mxCell>
        <mxCell id="-4G_2_kfRSxBcvjL3f6l-43" value="" style="strokeWidth=1;shadow=0;dashed=0;align=center;html=1;shape=mxgraph.mockup.forms.rrect;rSize=0;strokeColor=#999999;fillColor=#ffffff;recursiveResize=0;" vertex="1" parent="1">
          <mxGeometry x="360" y="530" width="150" height="90" as="geometry" />
        </mxCell>
        <mxCell id="-4G_2_kfRSxBcvjL3f6l-44" value="Paciente" style="strokeWidth=1;shadow=0;dashed=0;align=center;html=1;shape=mxgraph.mockup.forms.rrect;rSize=0;fillColor=#eeeeee;strokeColor=#999999;gradientColor=#cccccc;align=left;spacingLeft=4;fontSize=17;fontColor=#666666;labelPosition=right;" vertex="1" parent="-4G_2_kfRSxBcvjL3f6l-43">
          <mxGeometry x="8" y="7.5" width="15" height="15" as="geometry" />
        </mxCell>
        <mxCell id="-4G_2_kfRSxBcvjL3f6l-45" value="Medico" style="strokeWidth=1;shadow=0;dashed=0;align=center;html=1;shape=mxgraph.mockup.forms.rrect;rSize=0;fillColor=#eeeeee;strokeColor=#999999;gradientColor=#cccccc;align=left;spacingLeft=4;fontSize=17;fontColor=#666666;labelPosition=right;" vertex="1" parent="-4G_2_kfRSxBcvjL3f6l-43">
          <mxGeometry x="8" y="37.5" width="15" height="15" as="geometry" />
        </mxCell>
        <mxCell id="-4G_2_kfRSxBcvjL3f6l-46" value="Laboratorio" style="strokeWidth=1;shadow=0;dashed=0;align=center;html=1;shape=mxgraph.mockup.forms.checkbox;rSize=0;resizable=0;fillColor=#aaaaaa;strokeColor=#444444;gradientColor=#666666;align=left;spacingLeft=4;fontSize=17;fontColor=#008cff;labelPosition=right;" vertex="1" parent="-4G_2_kfRSxBcvjL3f6l-43">
          <mxGeometry x="8" y="67.5" width="15" height="15" as="geometry" />
        </mxCell>
        <mxCell id="-4G_2_kfRSxBcvjL3f6l-47" value="" style="verticalLabelPosition=bottom;shadow=0;dashed=0;align=center;html=1;verticalAlign=top;strokeWidth=1;shape=mxgraph.mockup.forms.colorPicker;chosenColor=#aaddff;" vertex="1" parent="1">
          <mxGeometry x="680" y="180" width="380" height="140" as="geometry" />
        </mxCell>
        <mxCell id="-4G_2_kfRSxBcvjL3f6l-48" value="Manual de usuario" style="text;html=1;strokeColor=none;fillColor=none;align=center;verticalAlign=middle;whiteSpace=wrap;rounded=0;" vertex="1" parent="1">
          <mxGeometry x="600" y="350" width="280" height="30" as="geometry" />
        </mxCell>
        <mxCell id="-4G_2_kfRSxBcvjL3f6l-49" value="Menu de inicio paciente" style="text;html=1;strokeColor=none;fillColor=none;align=center;verticalAlign=middle;whiteSpace=wrap;rounded=0;" vertex="1" parent="1">
          <mxGeometry x="630" y="10" width="90" height="30" as="geometry" />
        </mxCell>
        <mxCell id="-4G_2_kfRSxBcvjL3f6l-50" value="Medichealt" style="strokeWidth=1;shadow=0;dashed=0;align=center;html=1;shape=mxgraph.mockup.containers.window;align=left;verticalAlign=top;spacingLeft=8;strokeColor2=#008cff;strokeColor3=#c4c4c4;fontColor=#666666;mainText=;fontSize=17;labelBackgroundColor=none;whiteSpace=wrap;" vertex="1" parent="1">
          <mxGeometry x="630" y="470" width="550" height="380" as="geometry" />
        </mxCell>
        <mxCell id="-4G_2_kfRSxBcvjL3f6l-51" value="Bienvenido Medico (nombre de usuario)" style="text;html=1;strokeColor=none;fillColor=none;align=center;verticalAlign=middle;whiteSpace=wrap;rounded=0;" vertex="1" parent="1">
          <mxGeometry x="660" y="570" width="280" height="30" as="geometry" />
        </mxCell>
        <mxCell id="-4G_2_kfRSxBcvjL3f6l-52" value="" style="strokeWidth=1;shadow=0;dashed=0;align=center;html=1;shape=mxgraph.mockup.forms.rrect;rSize=0;strokeColor=#999999;" vertex="1" parent="1">
          <mxGeometry x="630" y="500" width="550" height="30" as="geometry" />
        </mxCell>
        <mxCell id="-4G_2_kfRSxBcvjL3f6l-53" value="&lt;span style=&quot;background-color: rgb(153, 255, 255);&quot;&gt;Inicio&lt;/span&gt;" style="strokeColor=inherit;fillColor=inherit;gradientColor=inherit;strokeWidth=1;shadow=0;dashed=0;align=center;html=1;shape=mxgraph.mockup.forms.rrect;rSize=0;fontSize=17;fontColor=#666666;whiteSpace=wrap;" vertex="1" parent="-4G_2_kfRSxBcvjL3f6l-52">
          <mxGeometry width="91.66666666666666" height="30" as="geometry" />
        </mxCell>
        <mxCell id="-4G_2_kfRSxBcvjL3f6l-54" value="" style="strokeColor=inherit;fillColor=inherit;gradientColor=inherit;strokeWidth=1;shadow=0;dashed=0;align=center;html=1;shape=mxgraph.mockup.forms.rrect;rSize=0;fontSize=17;fontColor=#666666;whiteSpace=wrap;" vertex="1" parent="-4G_2_kfRSxBcvjL3f6l-52">
          <mxGeometry x="91.66666666666666" width="91.66666666666666" height="30" as="geometry" />
        </mxCell>
        <mxCell id="-4G_2_kfRSxBcvjL3f6l-55" value="" style="strokeColor=inherit;fillColor=inherit;gradientColor=inherit;strokeWidth=1;shadow=0;dashed=0;align=center;html=1;shape=mxgraph.mockup.forms.rrect;rSize=0;fontSize=17;fontColor=#666666;whiteSpace=wrap;" vertex="1" parent="-4G_2_kfRSxBcvjL3f6l-52">
          <mxGeometry x="183.33333333333331" width="91.66666666666666" height="30" as="geometry" />
        </mxCell>
        <mxCell id="-4G_2_kfRSxBcvjL3f6l-56" value="" style="strokeColor=inherit;fillColor=inherit;gradientColor=inherit;strokeWidth=1;shadow=0;dashed=0;align=center;html=1;shape=mxgraph.mockup.forms.rrect;rSize=0;fontSize=17;fontColor=#666666;whiteSpace=wrap;" vertex="1" parent="-4G_2_kfRSxBcvjL3f6l-52">
          <mxGeometry x="275" width="91.66666666666666" height="30" as="geometry" />
        </mxCell>
        <mxCell id="-4G_2_kfRSxBcvjL3f6l-57" value="" style="strokeColor=inherit;fillColor=inherit;gradientColor=inherit;strokeWidth=1;shadow=0;dashed=0;align=center;html=1;shape=mxgraph.mockup.forms.rrect;rSize=0;fontSize=17;fontColor=#666666;whiteSpace=wrap;" vertex="1" parent="-4G_2_kfRSxBcvjL3f6l-52">
          <mxGeometry x="366.66666666666663" width="91.66666666666666" height="30" as="geometry" />
        </mxCell>
        <mxCell id="-4G_2_kfRSxBcvjL3f6l-58" value="" style="strokeColor=inherit;fillColor=inherit;gradientColor=inherit;strokeWidth=1;shadow=0;dashed=0;align=center;html=1;shape=mxgraph.mockup.forms.rrect;rSize=0;fontSize=17;fontColor=#666666;whiteSpace=wrap;" vertex="1" parent="-4G_2_kfRSxBcvjL3f6l-52">
          <mxGeometry x="458.3333333333333" width="91.66666666666666" height="30" as="geometry" />
        </mxCell>
        <mxCell id="-4G_2_kfRSxBcvjL3f6l-59" value="Menu de inicio Medico" style="text;html=1;strokeColor=none;fillColor=none;align=center;verticalAlign=middle;whiteSpace=wrap;rounded=0;" vertex="1" parent="1">
          <mxGeometry x="630" y="440" width="90" height="30" as="geometry" />
        </mxCell>
        <mxCell id="-4G_2_kfRSxBcvjL3f6l-60" value="Medichealt" style="strokeWidth=1;shadow=0;dashed=0;align=center;html=1;shape=mxgraph.mockup.containers.window;align=left;verticalAlign=top;spacingLeft=8;strokeColor2=#008cff;strokeColor3=#c4c4c4;fontColor=#666666;mainText=;fontSize=17;labelBackgroundColor=none;whiteSpace=wrap;" vertex="1" parent="1">
          <mxGeometry x="630" y="905" width="550" height="380" as="geometry" />
        </mxCell>
        <mxCell id="-4G_2_kfRSxBcvjL3f6l-61" value="Bienvenido al laboratorio (nombre de usuario)" style="text;html=1;strokeColor=none;fillColor=none;align=center;verticalAlign=middle;whiteSpace=wrap;rounded=0;" vertex="1" parent="1">
          <mxGeometry x="660" y="1005" width="280" height="30" as="geometry" />
        </mxCell>
        <mxCell id="-4G_2_kfRSxBcvjL3f6l-62" value="" style="strokeWidth=1;shadow=0;dashed=0;align=center;html=1;shape=mxgraph.mockup.forms.rrect;rSize=0;strokeColor=#999999;" vertex="1" parent="1">
          <mxGeometry x="630" y="935" width="550" height="30" as="geometry" />
        </mxCell>
        <mxCell id="-4G_2_kfRSxBcvjL3f6l-63" value="&lt;span style=&quot;background-color: rgb(153, 255, 255);&quot;&gt;Inicio&lt;/span&gt;" style="strokeColor=inherit;fillColor=inherit;gradientColor=inherit;strokeWidth=1;shadow=0;dashed=0;align=center;html=1;shape=mxgraph.mockup.forms.rrect;rSize=0;fontSize=17;fontColor=#666666;whiteSpace=wrap;" vertex="1" parent="-4G_2_kfRSxBcvjL3f6l-62">
          <mxGeometry width="91.66666666666666" height="30" as="geometry" />
        </mxCell>
        <mxCell id="-4G_2_kfRSxBcvjL3f6l-64" value="" style="strokeColor=inherit;fillColor=inherit;gradientColor=inherit;strokeWidth=1;shadow=0;dashed=0;align=center;html=1;shape=mxgraph.mockup.forms.rrect;rSize=0;fontSize=17;fontColor=#666666;whiteSpace=wrap;" vertex="1" parent="-4G_2_kfRSxBcvjL3f6l-62">
          <mxGeometry x="91.66666666666666" width="91.66666666666666" height="30" as="geometry" />
        </mxCell>
        <mxCell id="-4G_2_kfRSxBcvjL3f6l-65" value="" style="strokeColor=inherit;fillColor=inherit;gradientColor=inherit;strokeWidth=1;shadow=0;dashed=0;align=center;html=1;shape=mxgraph.mockup.forms.rrect;rSize=0;fontSize=17;fontColor=#666666;whiteSpace=wrap;" vertex="1" parent="-4G_2_kfRSxBcvjL3f6l-62">
          <mxGeometry x="183.33333333333331" width="91.66666666666666" height="30" as="geometry" />
        </mxCell>
        <mxCell id="-4G_2_kfRSxBcvjL3f6l-66" value="" style="strokeColor=inherit;fillColor=inherit;gradientColor=inherit;strokeWidth=1;shadow=0;dashed=0;align=center;html=1;shape=mxgraph.mockup.forms.rrect;rSize=0;fontSize=17;fontColor=#666666;whiteSpace=wrap;" vertex="1" parent="-4G_2_kfRSxBcvjL3f6l-62">
          <mxGeometry x="275" width="91.66666666666666" height="30" as="geometry" />
        </mxCell>
        <mxCell id="-4G_2_kfRSxBcvjL3f6l-67" value="" style="strokeColor=inherit;fillColor=inherit;gradientColor=inherit;strokeWidth=1;shadow=0;dashed=0;align=center;html=1;shape=mxgraph.mockup.forms.rrect;rSize=0;fontSize=17;fontColor=#666666;whiteSpace=wrap;" vertex="1" parent="-4G_2_kfRSxBcvjL3f6l-62">
          <mxGeometry x="366.66666666666663" width="91.66666666666666" height="30" as="geometry" />
        </mxCell>
        <mxCell id="-4G_2_kfRSxBcvjL3f6l-68" value="" style="strokeColor=inherit;fillColor=inherit;gradientColor=inherit;strokeWidth=1;shadow=0;dashed=0;align=center;html=1;shape=mxgraph.mockup.forms.rrect;rSize=0;fontSize=17;fontColor=#666666;whiteSpace=wrap;" vertex="1" parent="-4G_2_kfRSxBcvjL3f6l-62">
          <mxGeometry x="458.3333333333333" width="91.66666666666666" height="30" as="geometry" />
        </mxCell>
        <mxCell id="-4G_2_kfRSxBcvjL3f6l-69" value="Menu de inicio&amp;nbsp;&lt;br&gt;Laboratotio" style="text;html=1;strokeColor=none;fillColor=none;align=center;verticalAlign=middle;whiteSpace=wrap;rounded=0;" vertex="1" parent="1">
          <mxGeometry x="630" y="875" width="90" height="30" as="geometry" />
        </mxCell>
        <mxCell id="-4G_2_kfRSxBcvjL3f6l-70" value="Por favor ingrese la siguiente informcion" style="text;html=1;strokeColor=none;fillColor=none;align=center;verticalAlign=middle;whiteSpace=wrap;rounded=0;" vertex="1" parent="1">
          <mxGeometry x="660" y="600" width="280" height="30" as="geometry" />
        </mxCell>
        <mxCell id="-4G_2_kfRSxBcvjL3f6l-71" value="Especialidad" style="strokeWidth=1;shadow=0;dashed=0;align=center;html=1;shape=mxgraph.mockup.forms.anchor;fontSize=12;fontColor=#666666;align=left;resizeWidth=1;spacingLeft=0;" vertex="1" parent="1">
          <mxGeometry x="690" y="637.5" width="100" height="20" as="geometry" />
        </mxCell>
        <mxCell id="-4G_2_kfRSxBcvjL3f6l-72" value="" style="strokeWidth=1;shadow=0;dashed=0;align=center;html=1;shape=mxgraph.mockup.forms.rrect;rSize=0;strokeColor=#999999;fontColor=#666666;align=left;spacingLeft=5;resizeWidth=1;" vertex="1" parent="1">
          <mxGeometry x="690" y="657.5" width="150" height="25" as="geometry" />
        </mxCell>
        <mxCell id="-4G_2_kfRSxBcvjL3f6l-73" value="Costo de Especialidad" style="strokeWidth=1;shadow=0;dashed=0;align=center;html=1;shape=mxgraph.mockup.forms.anchor;fontSize=12;fontColor=#666666;align=left;resizeWidth=1;spacingLeft=0;" vertex="1" parent="1">
          <mxGeometry x="690" y="695" width="100" height="20" as="geometry" />
        </mxCell>
        <mxCell id="-4G_2_kfRSxBcvjL3f6l-74" value="" style="strokeWidth=1;shadow=0;dashed=0;align=center;html=1;shape=mxgraph.mockup.forms.rrect;rSize=0;strokeColor=#999999;fontColor=#666666;align=left;spacingLeft=5;resizeWidth=1;" vertex="1" parent="1">
          <mxGeometry x="690" y="715" width="150" height="25" as="geometry" />
        </mxCell>
        <mxCell id="-4G_2_kfRSxBcvjL3f6l-75" value="Horario de atecion" style="strokeWidth=1;shadow=0;dashed=0;align=center;html=1;shape=mxgraph.mockup.forms.anchor;fontSize=12;fontColor=#666666;align=left;resizeWidth=1;spacingLeft=0;" vertex="1" parent="1">
          <mxGeometry x="860" y="637.5" width="100" height="20" as="geometry" />
        </mxCell>
        <mxCell id="-4G_2_kfRSxBcvjL3f6l-76" value="" style="strokeWidth=1;shadow=0;dashed=0;align=center;html=1;shape=mxgraph.mockup.forms.rrect;rSize=0;strokeColor=#999999;fillColor=#ffffff;recursiveResize=0;" vertex="1" parent="1">
          <mxGeometry x="860" y="665" width="150" height="65" as="geometry" />
        </mxCell>
        <mxCell id="-4G_2_kfRSxBcvjL3f6l-77" value="Tipo de examen" style="strokeWidth=1;shadow=0;dashed=0;align=center;html=1;shape=mxgraph.mockup.forms.anchor;fontSize=12;fontColor=#666666;align=left;resizeWidth=1;spacingLeft=0;" vertex="1" parent="1">
          <mxGeometry x="680" y="1050" width="100" height="20" as="geometry" />
        </mxCell>
        <mxCell id="-4G_2_kfRSxBcvjL3f6l-78" value="" style="strokeWidth=1;shadow=0;dashed=0;align=center;html=1;shape=mxgraph.mockup.forms.rrect;rSize=0;strokeColor=#999999;fontColor=#666666;align=left;spacingLeft=5;resizeWidth=1;" vertex="1" parent="1">
          <mxGeometry x="680" y="1070" width="150" height="25" as="geometry" />
        </mxCell>
        <mxCell id="-4G_2_kfRSxBcvjL3f6l-79" value="costo de examen" style="strokeWidth=1;shadow=0;dashed=0;align=center;html=1;shape=mxgraph.mockup.forms.anchor;fontSize=12;fontColor=#666666;align=left;resizeWidth=1;spacingLeft=0;" vertex="1" parent="1">
          <mxGeometry x="680" y="1110" width="100" height="20" as="geometry" />
        </mxCell>
        <mxCell id="-4G_2_kfRSxBcvjL3f6l-80" value="" style="strokeWidth=1;shadow=0;dashed=0;align=center;html=1;shape=mxgraph.mockup.forms.rrect;rSize=0;strokeColor=#999999;fontColor=#666666;align=left;spacingLeft=5;resizeWidth=1;" vertex="1" parent="1">
          <mxGeometry x="680" y="1130" width="150" height="25" as="geometry" />
        </mxCell>
        <mxCell id="-4G_2_kfRSxBcvjL3f6l-81" value="Agregar" style="strokeWidth=1;shadow=0;dashed=0;align=center;html=1;shape=mxgraph.mockup.forms.rrect;rSize=5;strokeColor=none;fontColor=#ffffff;fillColor=#66bbff;fontSize=16;fontStyle=1;" vertex="1" parent="1">
          <mxGeometry x="860" y="769.9999999999999" width="80" height="30" as="geometry" />
        </mxCell>
        <mxCell id="-4G_2_kfRSxBcvjL3f6l-82" value="Medichealt" style="strokeWidth=1;shadow=0;dashed=0;align=center;html=1;shape=mxgraph.mockup.containers.window;align=left;verticalAlign=top;spacingLeft=8;strokeColor2=#008cff;strokeColor3=#c4c4c4;fontColor=#666666;mainText=;fontSize=17;labelBackgroundColor=none;whiteSpace=wrap;" vertex="1" parent="1">
          <mxGeometry x="1250" y="470" width="550" height="380" as="geometry" />
        </mxCell>
        <mxCell id="-4G_2_kfRSxBcvjL3f6l-83" value="" style="strokeWidth=1;shadow=0;dashed=0;align=center;html=1;shape=mxgraph.mockup.forms.rrect;rSize=0;strokeColor=#999999;" vertex="1" parent="1">
          <mxGeometry x="1250" y="500" width="550" height="30" as="geometry" />
        </mxCell>
        <mxCell id="-4G_2_kfRSxBcvjL3f6l-84" value="&lt;span style=&quot;background-color: rgb(255, 255, 255);&quot;&gt;Inicio&lt;/span&gt;" style="strokeColor=inherit;fillColor=inherit;gradientColor=inherit;strokeWidth=1;shadow=0;dashed=0;align=center;html=1;shape=mxgraph.mockup.forms.rrect;rSize=0;fontSize=17;fontColor=#666666;whiteSpace=wrap;" vertex="1" parent="-4G_2_kfRSxBcvjL3f6l-83">
          <mxGeometry width="91.66666666666666" height="30" as="geometry" />
        </mxCell>
        <mxCell id="-4G_2_kfRSxBcvjL3f6l-85" value="&lt;span style=&quot;background-color: rgb(51, 255, 255);&quot;&gt;Horario&lt;/span&gt;" style="strokeColor=inherit;fillColor=inherit;gradientColor=inherit;strokeWidth=1;shadow=0;dashed=0;align=center;html=1;shape=mxgraph.mockup.forms.rrect;rSize=0;fontSize=17;fontColor=#666666;whiteSpace=wrap;" vertex="1" parent="-4G_2_kfRSxBcvjL3f6l-83">
          <mxGeometry x="91.66666666666666" width="91.66666666666666" height="30" as="geometry" />
        </mxCell>
        <mxCell id="-4G_2_kfRSxBcvjL3f6l-86" value="Especialiad" style="strokeColor=inherit;fillColor=inherit;gradientColor=inherit;strokeWidth=1;shadow=0;dashed=0;align=center;html=1;shape=mxgraph.mockup.forms.rrect;rSize=0;fontSize=17;fontColor=#666666;whiteSpace=wrap;" vertex="1" parent="-4G_2_kfRSxBcvjL3f6l-83">
          <mxGeometry x="183.33333333333331" width="91.66666666666666" height="30" as="geometry" />
        </mxCell>
        <mxCell id="-4G_2_kfRSxBcvjL3f6l-87" value="Consultas" style="strokeColor=inherit;fillColor=inherit;gradientColor=inherit;strokeWidth=1;shadow=0;dashed=0;align=center;html=1;shape=mxgraph.mockup.forms.rrect;rSize=0;fontSize=17;fontColor=#666666;whiteSpace=wrap;" vertex="1" parent="-4G_2_kfRSxBcvjL3f6l-83">
          <mxGeometry x="275" width="91.66666666666666" height="30" as="geometry" />
        </mxCell>
        <mxCell id="-4G_2_kfRSxBcvjL3f6l-88" value="Examenes" style="strokeColor=inherit;fillColor=inherit;gradientColor=inherit;strokeWidth=1;shadow=0;dashed=0;align=center;html=1;shape=mxgraph.mockup.forms.rrect;rSize=0;fontSize=17;fontColor=#666666;whiteSpace=wrap;" vertex="1" parent="-4G_2_kfRSxBcvjL3f6l-83">
          <mxGeometry x="366.66666666666663" width="91.66666666666666" height="30" as="geometry" />
        </mxCell>
        <mxCell id="-4G_2_kfRSxBcvjL3f6l-89" value="Historial" style="strokeColor=inherit;fillColor=inherit;gradientColor=inherit;strokeWidth=1;shadow=0;dashed=0;align=center;html=1;shape=mxgraph.mockup.forms.rrect;rSize=0;fontSize=17;fontColor=#666666;whiteSpace=wrap;" vertex="1" parent="-4G_2_kfRSxBcvjL3f6l-83">
          <mxGeometry x="458.3333333333333" width="91.66666666666666" height="30" as="geometry" />
        </mxCell>
        <mxCell id="-4G_2_kfRSxBcvjL3f6l-90" value="Menu Medico Horario" style="text;html=1;strokeColor=none;fillColor=none;align=center;verticalAlign=middle;whiteSpace=wrap;rounded=0;" vertex="1" parent="1">
          <mxGeometry x="1250" y="440" width="90" height="30" as="geometry" />
        </mxCell>
        <mxCell id="-4G_2_kfRSxBcvjL3f6l-136" value="Descargar" style="strokeWidth=1;shadow=0;dashed=0;align=center;html=1;shape=mxgraph.mockup.forms.rrect;rSize=5;strokeColor=none;fontColor=#ffffff;fillColor=#66bbff;fontSize=16;fontStyle=1;" vertex="1" parent="1">
          <mxGeometry x="1000" y="349.9999999999999" width="80" height="30" as="geometry" />
        </mxCell>
        <mxCell id="-4G_2_kfRSxBcvjL3f6l-144" value="Medichealt" style="strokeWidth=1;shadow=0;dashed=0;align=center;html=1;shape=mxgraph.mockup.containers.window;align=left;verticalAlign=top;spacingLeft=8;strokeColor2=#008cff;strokeColor3=#c4c4c4;fontColor=#666666;mainText=;fontSize=17;labelBackgroundColor=none;whiteSpace=wrap;" vertex="1" parent="1">
          <mxGeometry x="10" y="950" width="550" height="380" as="geometry" />
        </mxCell>
        <mxCell id="-4G_2_kfRSxBcvjL3f6l-145" value="Cerrar Sesion" style="text;html=1;strokeColor=none;fillColor=none;align=center;verticalAlign=middle;whiteSpace=wrap;rounded=0;" vertex="1" parent="1">
          <mxGeometry x="10" y="920" width="60" height="30" as="geometry" />
        </mxCell>
        <mxCell id="-4G_2_kfRSxBcvjL3f6l-146" value="" style="strokeWidth=1;shadow=0;dashed=0;align=center;html=1;shape=mxgraph.mockup.forms.rrect;rSize=0;strokeColor=#999999;" vertex="1" parent="1">
          <mxGeometry x="10" y="980" width="550" height="30" as="geometry" />
        </mxCell>
        <mxCell id="-4G_2_kfRSxBcvjL3f6l-147" value="" style="strokeColor=inherit;fillColor=inherit;gradientColor=inherit;strokeWidth=1;shadow=0;dashed=0;align=center;html=1;shape=mxgraph.mockup.forms.rrect;rSize=0;fontSize=17;fontColor=#666666;whiteSpace=wrap;" vertex="1" parent="-4G_2_kfRSxBcvjL3f6l-146">
          <mxGeometry width="91.66666666666666" height="30" as="geometry" />
        </mxCell>
        <mxCell id="-4G_2_kfRSxBcvjL3f6l-148" value="" style="strokeColor=inherit;fillColor=inherit;gradientColor=inherit;strokeWidth=1;shadow=0;dashed=0;align=center;html=1;shape=mxgraph.mockup.forms.rrect;rSize=0;fontSize=17;fontColor=#666666;whiteSpace=wrap;" vertex="1" parent="-4G_2_kfRSxBcvjL3f6l-146">
          <mxGeometry x="91.66666666666666" width="91.66666666666666" height="30" as="geometry" />
        </mxCell>
        <mxCell id="-4G_2_kfRSxBcvjL3f6l-149" value="" style="strokeColor=inherit;fillColor=inherit;gradientColor=inherit;strokeWidth=1;shadow=0;dashed=0;align=center;html=1;shape=mxgraph.mockup.forms.rrect;rSize=0;fontSize=17;fontColor=#666666;whiteSpace=wrap;" vertex="1" parent="-4G_2_kfRSxBcvjL3f6l-146">
          <mxGeometry x="183.33333333333331" width="91.66666666666666" height="30" as="geometry" />
        </mxCell>
        <mxCell id="-4G_2_kfRSxBcvjL3f6l-150" value="" style="strokeColor=inherit;fillColor=inherit;gradientColor=inherit;strokeWidth=1;shadow=0;dashed=0;align=center;html=1;shape=mxgraph.mockup.forms.rrect;rSize=0;fontSize=17;fontColor=#666666;whiteSpace=wrap;" vertex="1" parent="-4G_2_kfRSxBcvjL3f6l-146">
          <mxGeometry x="275" width="91.66666666666666" height="30" as="geometry" />
        </mxCell>
        <mxCell id="-4G_2_kfRSxBcvjL3f6l-151" value="" style="strokeColor=inherit;fillColor=inherit;gradientColor=inherit;strokeWidth=1;shadow=0;dashed=0;align=center;html=1;shape=mxgraph.mockup.forms.rrect;rSize=0;fontSize=17;fontColor=#666666;whiteSpace=wrap;" vertex="1" parent="-4G_2_kfRSxBcvjL3f6l-146">
          <mxGeometry x="366.66666666666663" width="91.66666666666666" height="30" as="geometry" />
        </mxCell>
        <mxCell id="-4G_2_kfRSxBcvjL3f6l-152" value="&lt;font style=&quot;font-size: 12px; background-color: rgb(51, 255, 255);&quot;&gt;Cerrar Sesion&lt;/font&gt;" style="strokeColor=inherit;fillColor=inherit;gradientColor=inherit;strokeWidth=1;shadow=0;dashed=0;align=center;html=1;shape=mxgraph.mockup.forms.rrect;rSize=0;fontSize=17;fontColor=#666666;whiteSpace=wrap;" vertex="1" parent="-4G_2_kfRSxBcvjL3f6l-146">
          <mxGeometry x="458.3333333333333" width="91.66666666666666" height="30" as="geometry" />
        </mxCell>
        <mxCell id="-4G_2_kfRSxBcvjL3f6l-153" value="Esta seguro de cerrar sesion" style="strokeWidth=1;shadow=0;dashed=0;align=center;html=1;shape=mxgraph.mockup.containers.rrect;rSize=0;strokeColor=#666666;fontColor=#666666;fontSize=17;verticalAlign=top;whiteSpace=wrap;fillColor=#ffffff;spacingTop=32;" vertex="1" parent="1">
          <mxGeometry x="160" y="1050" width="250" height="140" as="geometry" />
        </mxCell>
        <mxCell id="-4G_2_kfRSxBcvjL3f6l-154" value="Mensaje" style="strokeWidth=1;shadow=0;dashed=0;align=center;html=1;shape=mxgraph.mockup.containers.rrect;rSize=0;fontSize=17;fontColor=#666666;strokeColor=#666666;align=left;spacingLeft=8;fillColor=none;resizeWidth=1;whiteSpace=wrap;" vertex="1" parent="-4G_2_kfRSxBcvjL3f6l-153">
          <mxGeometry width="250" height="30" relative="1" as="geometry" />
        </mxCell>
        <mxCell id="-4G_2_kfRSxBcvjL3f6l-155" value="" style="shape=ellipse;strokeColor=#008cff;resizable=0;fillColor=none;html=1;" vertex="1" parent="-4G_2_kfRSxBcvjL3f6l-154">
          <mxGeometry x="1" y="0.5" width="20" height="20" relative="1" as="geometry">
            <mxPoint x="-25" y="-10" as="offset" />
          </mxGeometry>
        </mxCell>
        <mxCell id="-4G_2_kfRSxBcvjL3f6l-156" value="Cancel" style="strokeWidth=1;shadow=0;dashed=0;align=center;html=1;shape=mxgraph.mockup.containers.rrect;rSize=0;fontSize=16;fontColor=#666666;strokeColor=#c4c4c4;whiteSpace=wrap;fillColor=none;" vertex="1" parent="-4G_2_kfRSxBcvjL3f6l-153">
          <mxGeometry x="0.25" y="1" width="90" height="25" relative="1" as="geometry">
            <mxPoint x="-45" y="-33" as="offset" />
          </mxGeometry>
        </mxCell>
        <mxCell id="-4G_2_kfRSxBcvjL3f6l-157" value="OK" style="strokeWidth=1;shadow=0;dashed=0;align=center;html=1;shape=mxgraph.mockup.containers.rrect;rSize=0;fontSize=16;fontColor=#666666;strokeColor=#c4c4c4;whiteSpace=wrap;fillColor=none;" vertex="1" parent="-4G_2_kfRSxBcvjL3f6l-153">
          <mxGeometry x="0.75" y="1" width="90" height="25" relative="1" as="geometry">
            <mxPoint x="-45" y="-33" as="offset" />
          </mxGeometry>
        </mxCell>
        <mxCell id="-4G_2_kfRSxBcvjL3f6l-158" value="Medichealt" style="strokeWidth=1;shadow=0;dashed=0;align=center;html=1;shape=mxgraph.mockup.containers.window;align=left;verticalAlign=top;spacingLeft=8;strokeColor2=#008cff;strokeColor3=#c4c4c4;fontColor=#666666;mainText=;fontSize=17;labelBackgroundColor=none;whiteSpace=wrap;" vertex="1" parent="1">
          <mxGeometry x="625" y="1340" width="550" height="380" as="geometry" />
        </mxCell>
        <mxCell id="-4G_2_kfRSxBcvjL3f6l-159" value="Bienvenido Paciente (nombre de usuario)" style="text;html=1;strokeColor=none;fillColor=none;align=center;verticalAlign=middle;whiteSpace=wrap;rounded=0;" vertex="1" parent="1">
          <mxGeometry x="655" y="1440" width="280" height="30" as="geometry" />
        </mxCell>
        <mxCell id="-4G_2_kfRSxBcvjL3f6l-160" value="" style="strokeWidth=1;shadow=0;dashed=0;align=center;html=1;shape=mxgraph.mockup.forms.rrect;rSize=0;strokeColor=#999999;" vertex="1" parent="1">
          <mxGeometry x="625" y="1370" width="550" height="30" as="geometry" />
        </mxCell>
        <mxCell id="-4G_2_kfRSxBcvjL3f6l-161" value="&lt;span style=&quot;background-color: rgb(153, 255, 255);&quot;&gt;Inicio&lt;/span&gt;" style="strokeColor=inherit;fillColor=inherit;gradientColor=inherit;strokeWidth=1;shadow=0;dashed=0;align=center;html=1;shape=mxgraph.mockup.forms.rrect;rSize=0;fontSize=17;fontColor=#666666;whiteSpace=wrap;" vertex="1" parent="-4G_2_kfRSxBcvjL3f6l-160">
          <mxGeometry width="91.66666666666666" height="30" as="geometry" />
        </mxCell>
        <mxCell id="-4G_2_kfRSxBcvjL3f6l-162" value="Solicitudes" style="strokeColor=inherit;fillColor=inherit;gradientColor=inherit;strokeWidth=1;shadow=0;dashed=0;align=center;html=1;shape=mxgraph.mockup.forms.rrect;rSize=0;fontSize=17;fontColor=#666666;whiteSpace=wrap;" vertex="1" parent="-4G_2_kfRSxBcvjL3f6l-160">
          <mxGeometry x="91.66666666666666" width="91.66666666666666" height="30" as="geometry" />
        </mxCell>
        <mxCell id="-4G_2_kfRSxBcvjL3f6l-163" value="Examenes" style="strokeColor=inherit;fillColor=inherit;gradientColor=inherit;strokeWidth=1;shadow=0;dashed=0;align=center;html=1;shape=mxgraph.mockup.forms.rrect;rSize=0;fontSize=17;fontColor=#666666;whiteSpace=wrap;" vertex="1" parent="-4G_2_kfRSxBcvjL3f6l-160">
          <mxGeometry x="183.33333333333331" width="91.66666666666666" height="30" as="geometry" />
        </mxCell>
        <mxCell id="-4G_2_kfRSxBcvjL3f6l-164" value="Reportes" style="strokeColor=inherit;fillColor=inherit;gradientColor=inherit;strokeWidth=1;shadow=0;dashed=0;align=center;html=1;shape=mxgraph.mockup.forms.rrect;rSize=0;fontSize=17;fontColor=#666666;whiteSpace=wrap;" vertex="1" parent="-4G_2_kfRSxBcvjL3f6l-160">
          <mxGeometry x="275" width="91.66666666666666" height="30" as="geometry" />
        </mxCell>
        <mxCell id="-4G_2_kfRSxBcvjL3f6l-165" value="" style="strokeColor=inherit;fillColor=inherit;gradientColor=inherit;strokeWidth=1;shadow=0;dashed=0;align=center;html=1;shape=mxgraph.mockup.forms.rrect;rSize=0;fontSize=17;fontColor=#666666;whiteSpace=wrap;" vertex="1" parent="-4G_2_kfRSxBcvjL3f6l-160">
          <mxGeometry x="366.66666666666663" width="91.66666666666666" height="30" as="geometry" />
        </mxCell>
        <mxCell id="-4G_2_kfRSxBcvjL3f6l-166" value="" style="strokeColor=inherit;fillColor=inherit;gradientColor=inherit;strokeWidth=1;shadow=0;dashed=0;align=center;html=1;shape=mxgraph.mockup.forms.rrect;rSize=0;fontSize=17;fontColor=#666666;whiteSpace=wrap;" vertex="1" parent="-4G_2_kfRSxBcvjL3f6l-160">
          <mxGeometry x="458.3333333333333" width="91.66666666666666" height="30" as="geometry" />
        </mxCell>
        <mxCell id="-4G_2_kfRSxBcvjL3f6l-168" value="Menu de inicio Administrador" style="text;html=1;strokeColor=none;fillColor=none;align=center;verticalAlign=middle;whiteSpace=wrap;rounded=0;" vertex="1" parent="1">
          <mxGeometry x="625" y="1310" width="90" height="30" as="geometry" />
        </mxCell>
        <mxCell id="-4G_2_kfRSxBcvjL3f6l-170" value="Medichealt" style="strokeWidth=1;shadow=0;dashed=0;align=center;html=1;shape=mxgraph.mockup.containers.window;align=left;verticalAlign=top;spacingLeft=8;strokeColor2=#008cff;strokeColor3=#c4c4c4;fontColor=#666666;mainText=;fontSize=17;labelBackgroundColor=none;whiteSpace=wrap;" vertex="1" parent="1">
          <mxGeometry x="1241" y="900" width="550" height="380" as="geometry" />
        </mxCell>
        <mxCell id="-4G_2_kfRSxBcvjL3f6l-171" value="" style="strokeWidth=1;shadow=0;dashed=0;align=center;html=1;shape=mxgraph.mockup.forms.rrect;rSize=0;strokeColor=#999999;" vertex="1" parent="1">
          <mxGeometry x="1241" y="930" width="550" height="30" as="geometry" />
        </mxCell>
        <mxCell id="-4G_2_kfRSxBcvjL3f6l-172" value="&lt;span style=&quot;background-color: rgb(255, 255, 255);&quot;&gt;Inicio&lt;/span&gt;" style="strokeColor=inherit;fillColor=inherit;gradientColor=inherit;strokeWidth=1;shadow=0;dashed=0;align=center;html=1;shape=mxgraph.mockup.forms.rrect;rSize=0;fontSize=17;fontColor=#666666;whiteSpace=wrap;" vertex="1" parent="-4G_2_kfRSxBcvjL3f6l-171">
          <mxGeometry width="91.66666666666666" height="30" as="geometry" />
        </mxCell>
        <mxCell id="-4G_2_kfRSxBcvjL3f6l-173" value="&lt;span style=&quot;background-color: rgb(51, 255, 255);&quot;&gt;Examenes&lt;/span&gt;" style="strokeColor=inherit;fillColor=inherit;gradientColor=inherit;strokeWidth=1;shadow=0;dashed=0;align=center;html=1;shape=mxgraph.mockup.forms.rrect;rSize=0;fontSize=17;fontColor=#666666;whiteSpace=wrap;" vertex="1" parent="-4G_2_kfRSxBcvjL3f6l-171">
          <mxGeometry x="91.66666666666666" width="91.66666666666666" height="30" as="geometry" />
        </mxCell>
        <mxCell id="-4G_2_kfRSxBcvjL3f6l-174" value="Reportes" style="strokeColor=inherit;fillColor=inherit;gradientColor=inherit;strokeWidth=1;shadow=0;dashed=0;align=center;html=1;shape=mxgraph.mockup.forms.rrect;rSize=0;fontSize=17;fontColor=#666666;whiteSpace=wrap;" vertex="1" parent="-4G_2_kfRSxBcvjL3f6l-171">
          <mxGeometry x="183.33333333333331" width="91.66666666666666" height="30" as="geometry" />
        </mxCell>
        <mxCell id="-4G_2_kfRSxBcvjL3f6l-175" value="" style="strokeColor=inherit;fillColor=inherit;gradientColor=inherit;strokeWidth=1;shadow=0;dashed=0;align=center;html=1;shape=mxgraph.mockup.forms.rrect;rSize=0;fontSize=17;fontColor=#666666;whiteSpace=wrap;" vertex="1" parent="-4G_2_kfRSxBcvjL3f6l-171">
          <mxGeometry x="275" width="91.66666666666666" height="30" as="geometry" />
        </mxCell>
        <mxCell id="-4G_2_kfRSxBcvjL3f6l-176" value="" style="strokeColor=inherit;fillColor=inherit;gradientColor=inherit;strokeWidth=1;shadow=0;dashed=0;align=center;html=1;shape=mxgraph.mockup.forms.rrect;rSize=0;fontSize=17;fontColor=#666666;whiteSpace=wrap;" vertex="1" parent="-4G_2_kfRSxBcvjL3f6l-171">
          <mxGeometry x="366.66666666666663" width="91.66666666666666" height="30" as="geometry" />
        </mxCell>
        <mxCell id="-4G_2_kfRSxBcvjL3f6l-177" value="" style="strokeColor=inherit;fillColor=inherit;gradientColor=inherit;strokeWidth=1;shadow=0;dashed=0;align=center;html=1;shape=mxgraph.mockup.forms.rrect;rSize=0;fontSize=17;fontColor=#666666;whiteSpace=wrap;" vertex="1" parent="-4G_2_kfRSxBcvjL3f6l-171">
          <mxGeometry x="458.3333333333333" width="91.66666666666666" height="30" as="geometry" />
        </mxCell>
        <mxCell id="-4G_2_kfRSxBcvjL3f6l-178" value="Menu Laboratorio Exámenes" style="text;html=1;strokeColor=none;fillColor=none;align=center;verticalAlign=middle;whiteSpace=wrap;rounded=0;" vertex="1" parent="1">
          <mxGeometry x="1240" y="875" width="110" height="20" as="geometry" />
        </mxCell>
        <mxCell id="-4G_2_kfRSxBcvjL3f6l-224" value="Medichealt" style="strokeWidth=1;shadow=0;dashed=0;align=center;html=1;shape=mxgraph.mockup.containers.window;align=left;verticalAlign=top;spacingLeft=8;strokeColor2=#008cff;strokeColor3=#c4c4c4;fontColor=#666666;mainText=;fontSize=17;labelBackgroundColor=none;whiteSpace=wrap;" vertex="1" parent="1">
          <mxGeometry x="1220" y="1340" width="550" height="380" as="geometry" />
        </mxCell>
        <mxCell id="-4G_2_kfRSxBcvjL3f6l-225" value="" style="strokeWidth=1;shadow=0;dashed=0;align=center;html=1;shape=mxgraph.mockup.forms.rrect;rSize=0;strokeColor=#999999;" vertex="1" parent="1">
          <mxGeometry x="1220" y="1370" width="550" height="30" as="geometry" />
        </mxCell>
        <mxCell id="-4G_2_kfRSxBcvjL3f6l-226" value="&lt;span style=&quot;background-color: rgb(255, 255, 255);&quot;&gt;Inicio&lt;/span&gt;" style="strokeColor=inherit;fillColor=inherit;gradientColor=inherit;strokeWidth=1;shadow=0;dashed=0;align=center;html=1;shape=mxgraph.mockup.forms.rrect;rSize=0;fontSize=17;fontColor=#666666;whiteSpace=wrap;" vertex="1" parent="-4G_2_kfRSxBcvjL3f6l-225">
          <mxGeometry width="91.66666666666666" height="30" as="geometry" />
        </mxCell>
        <mxCell id="-4G_2_kfRSxBcvjL3f6l-227" value="&lt;span style=&quot;background-color: rgb(255, 255, 255);&quot;&gt;Solicitudes&lt;/span&gt;" style="strokeColor=inherit;fillColor=inherit;gradientColor=inherit;strokeWidth=1;shadow=0;dashed=0;align=center;html=1;shape=mxgraph.mockup.forms.rrect;rSize=0;fontSize=17;fontColor=#666666;whiteSpace=wrap;" vertex="1" parent="-4G_2_kfRSxBcvjL3f6l-225">
          <mxGeometry x="91.66666666666666" width="91.66666666666666" height="30" as="geometry" />
        </mxCell>
        <mxCell id="-4G_2_kfRSxBcvjL3f6l-228" value="&lt;span style=&quot;background-color: rgb(255, 255, 255);&quot;&gt;Porcentaje&lt;/span&gt;" style="strokeColor=inherit;fillColor=inherit;gradientColor=inherit;strokeWidth=1;shadow=0;dashed=0;align=center;html=1;shape=mxgraph.mockup.forms.rrect;rSize=0;fontSize=17;fontColor=#666666;whiteSpace=wrap;" vertex="1" parent="-4G_2_kfRSxBcvjL3f6l-225">
          <mxGeometry x="183.33333333333331" width="91.66666666666666" height="30" as="geometry" />
        </mxCell>
        <mxCell id="-4G_2_kfRSxBcvjL3f6l-229" value="&lt;span style=&quot;background-color: rgb(51, 255, 255);&quot;&gt;Reportes&lt;/span&gt;" style="strokeColor=inherit;fillColor=inherit;gradientColor=inherit;strokeWidth=1;shadow=0;dashed=0;align=center;html=1;shape=mxgraph.mockup.forms.rrect;rSize=0;fontSize=17;fontColor=#666666;whiteSpace=wrap;" vertex="1" parent="-4G_2_kfRSxBcvjL3f6l-225">
          <mxGeometry x="275" width="91.66666666666666" height="30" as="geometry" />
        </mxCell>
        <mxCell id="-4G_2_kfRSxBcvjL3f6l-230" value="" style="strokeColor=inherit;fillColor=inherit;gradientColor=inherit;strokeWidth=1;shadow=0;dashed=0;align=center;html=1;shape=mxgraph.mockup.forms.rrect;rSize=0;fontSize=17;fontColor=#666666;whiteSpace=wrap;" vertex="1" parent="-4G_2_kfRSxBcvjL3f6l-225">
          <mxGeometry x="366.66666666666663" width="91.66666666666666" height="30" as="geometry" />
        </mxCell>
        <mxCell id="-4G_2_kfRSxBcvjL3f6l-231" value="" style="strokeColor=inherit;fillColor=inherit;gradientColor=inherit;strokeWidth=1;shadow=0;dashed=0;align=center;html=1;shape=mxgraph.mockup.forms.rrect;rSize=0;fontSize=17;fontColor=#666666;whiteSpace=wrap;" vertex="1" parent="-4G_2_kfRSxBcvjL3f6l-225">
          <mxGeometry x="458.3333333333333" width="91.66666666666666" height="30" as="geometry" />
        </mxCell>
        <mxCell id="-4G_2_kfRSxBcvjL3f6l-232" value="Menu Administrador Registros" style="text;html=1;strokeColor=none;fillColor=none;align=left;verticalAlign=middle;whiteSpace=wrap;rounded=0;" vertex="1" parent="1">
          <mxGeometry x="1220" y="1310" width="219" height="30" as="geometry" />
        </mxCell>
        <mxCell id="-4G_2_kfRSxBcvjL3f6l-233" value="&lt;span style=&quot;font-size: 10px;&quot;&gt;Generar reporte en pdf&lt;/span&gt;" style="strokeWidth=1;shadow=0;dashed=0;align=center;html=1;shape=mxgraph.mockup.text.textBox;fontColor=#666666;align=left;fontSize=17;spacingLeft=4;spacingTop=-3;whiteSpace=wrap;strokeColor=#666666;mainText=" vertex="1" parent="1">
          <mxGeometry x="1252" y="1455" width="250" height="30" as="geometry" />
        </mxCell>
        <mxCell id="-4G_2_kfRSxBcvjL3f6l-234" value="&lt;font style=&quot;font-size: 10px;&quot;&gt;Descarga&lt;/font&gt;" style="strokeWidth=1;shadow=0;dashed=0;align=center;html=1;shape=mxgraph.mockup.forms.rrect;rSize=5;strokeColor=none;fontColor=#ffffff;fillColor=#66bbff;fontSize=16;fontStyle=1;" vertex="1" parent="1">
          <mxGeometry x="1412" y="1460" width="70" height="20" as="geometry" />
        </mxCell>
        <mxCell id="-4G_2_kfRSxBcvjL3f6l-235" value="Historial de porcentaje" style="text;html=1;strokeColor=none;fillColor=none;align=left;verticalAlign=middle;whiteSpace=wrap;rounded=0;" vertex="1" parent="1">
          <mxGeometry x="1252" y="1425" width="187" height="30" as="geometry" />
        </mxCell>
        <mxCell id="-4G_2_kfRSxBcvjL3f6l-236" value="&lt;span style=&quot;font-size: 10px;&quot;&gt;Generar reporte en pdf&lt;/span&gt;" style="strokeWidth=1;shadow=0;dashed=0;align=center;html=1;shape=mxgraph.mockup.text.textBox;fontColor=#666666;align=left;fontSize=17;spacingLeft=4;spacingTop=-3;whiteSpace=wrap;strokeColor=#666666;mainText=" vertex="1" parent="1">
          <mxGeometry x="1252" y="1530" width="250" height="30" as="geometry" />
        </mxCell>
        <mxCell id="-4G_2_kfRSxBcvjL3f6l-237" value="Top 5 Médicos" style="text;html=1;strokeColor=none;fillColor=none;align=left;verticalAlign=middle;whiteSpace=wrap;rounded=0;" vertex="1" parent="1">
          <mxGeometry x="1252" y="1500" width="187" height="30" as="geometry" />
        </mxCell>
        <mxCell id="-4G_2_kfRSxBcvjL3f6l-238" value="&lt;font style=&quot;font-size: 10px;&quot;&gt;Descarga&lt;/font&gt;" style="strokeWidth=1;shadow=0;dashed=0;align=center;html=1;shape=mxgraph.mockup.forms.rrect;rSize=5;strokeColor=none;fontColor=#ffffff;fillColor=#66bbff;fontSize=16;fontStyle=1;" vertex="1" parent="1">
          <mxGeometry x="1412" y="1535" width="70" height="20" as="geometry" />
        </mxCell>
        <mxCell id="-4G_2_kfRSxBcvjL3f6l-239" value="&lt;span style=&quot;font-size: 10px;&quot;&gt;Generar reporte en pdf&lt;/span&gt;" style="strokeWidth=1;shadow=0;dashed=0;align=center;html=1;shape=mxgraph.mockup.text.textBox;fontColor=#666666;align=left;fontSize=17;spacingLeft=4;spacingTop=-3;whiteSpace=wrap;strokeColor=#666666;mainText=" vertex="1" parent="1">
          <mxGeometry x="1252" y="1600" width="250" height="30" as="geometry" />
        </mxCell>
        <mxCell id="-4G_2_kfRSxBcvjL3f6l-240" value="Top 5 Laboratorios" style="text;html=1;strokeColor=none;fillColor=none;align=left;verticalAlign=middle;whiteSpace=wrap;rounded=0;" vertex="1" parent="1">
          <mxGeometry x="1252" y="1570" width="187" height="30" as="geometry" />
        </mxCell>
        <mxCell id="-4G_2_kfRSxBcvjL3f6l-241" value="&lt;span style=&quot;font-size: 10px;&quot;&gt;Generar reporte en pdf&lt;/span&gt;" style="strokeWidth=1;shadow=0;dashed=0;align=center;html=1;shape=mxgraph.mockup.text.textBox;fontColor=#666666;align=left;fontSize=17;spacingLeft=4;spacingTop=-3;whiteSpace=wrap;strokeColor=#666666;mainText=" vertex="1" parent="1">
          <mxGeometry x="1252" y="1665" width="250" height="30" as="geometry" />
        </mxCell>
        <mxCell id="-4G_2_kfRSxBcvjL3f6l-242" value="Total de ingresos" style="text;html=1;strokeColor=none;fillColor=none;align=left;verticalAlign=middle;whiteSpace=wrap;rounded=0;" vertex="1" parent="1">
          <mxGeometry x="1252" y="1635" width="187" height="30" as="geometry" />
        </mxCell>
        <mxCell id="-4G_2_kfRSxBcvjL3f6l-243" value="&lt;font style=&quot;font-size: 10px;&quot;&gt;Descarga&lt;/font&gt;" style="strokeWidth=1;shadow=0;dashed=0;align=center;html=1;shape=mxgraph.mockup.forms.rrect;rSize=5;strokeColor=none;fontColor=#ffffff;fillColor=#66bbff;fontSize=16;fontStyle=1;" vertex="1" parent="1">
          <mxGeometry x="1412" y="1605" width="70" height="20" as="geometry" />
        </mxCell>
        <mxCell id="-4G_2_kfRSxBcvjL3f6l-244" value="&lt;font style=&quot;font-size: 10px;&quot;&gt;Descarga&lt;/font&gt;" style="strokeWidth=1;shadow=0;dashed=0;align=center;html=1;shape=mxgraph.mockup.forms.rrect;rSize=5;strokeColor=none;fontColor=#ffffff;fillColor=#66bbff;fontSize=16;fontStyle=1;" vertex="1" parent="1">
          <mxGeometry x="1412" y="1670" width="70" height="20" as="geometry" />
        </mxCell>
        <mxCell id="-4G_2_kfRSxBcvjL3f6l-245" value="8:00 a 13:00" style="strokeWidth=1;shadow=0;dashed=0;align=left;html=1;shape=mxgraph.mockup.forms.spinner;strokeColor=#999999;spinLayout=right;spinStyle=normal;adjStyle=triangle;fillColor=#aaddff;fontSize=17;fontColor=#666666;mainText=;html=1;overflow=fill;" vertex="1" parent="1">
          <mxGeometry x="870" y="682.5" width="130" height="40" as="geometry" />
        </mxCell>
        <mxCell id="-4G_2_kfRSxBcvjL3f6l-246" value="8:00 a 13:00" style="strokeWidth=1;shadow=0;dashed=0;align=left;html=1;shape=mxgraph.mockup.forms.spinner;strokeColor=#999999;spinLayout=right;spinStyle=normal;adjStyle=triangle;fillColor=#aaddff;fontSize=17;fontColor=#666666;mainText=;html=1;overflow=fill;" vertex="1" parent="1">
          <mxGeometry x="1391" y="585" width="130" height="40" as="geometry" />
        </mxCell>
        <mxCell id="-4G_2_kfRSxBcvjL3f6l-247" value="modificar" style="strokeWidth=1;shadow=0;dashed=0;align=center;html=1;shape=mxgraph.mockup.forms.rrect;rSize=5;strokeColor=none;fontColor=#ffffff;fillColor=#66bbff;fontSize=16;fontStyle=1;" vertex="1" parent="1">
          <mxGeometry x="1550" y="589.9999999999999" width="80" height="30" as="geometry" />
        </mxCell>
        <mxCell id="-4G_2_kfRSxBcvjL3f6l-248" value="Medichealt" style="strokeWidth=1;shadow=0;dashed=0;align=center;html=1;shape=mxgraph.mockup.containers.window;align=left;verticalAlign=top;spacingLeft=8;strokeColor2=#008cff;strokeColor3=#c4c4c4;fontColor=#666666;mainText=;fontSize=17;labelBackgroundColor=none;whiteSpace=wrap;" vertex="1" parent="1">
          <mxGeometry x="1850" y="470" width="550" height="380" as="geometry" />
        </mxCell>
        <mxCell id="-4G_2_kfRSxBcvjL3f6l-249" value="Menu Medico Especialidad" style="text;html=1;strokeColor=none;fillColor=none;align=center;verticalAlign=middle;whiteSpace=wrap;rounded=0;" vertex="1" parent="1">
          <mxGeometry x="1850" y="440" width="90" height="30" as="geometry" />
        </mxCell>
        <mxCell id="-4G_2_kfRSxBcvjL3f6l-250" value="&lt;font style=&quot;font-size: 14px;&quot;&gt;Reportes&lt;/font&gt;" style="strokeWidth=1;shadow=0;dashed=0;align=center;html=1;shape=mxgraph.mockup.forms.rrect;rSize=0;strokeColor=#999999;fontColor=#666666;align=left;spacingLeft=5;resizeWidth=1;" vertex="1" parent="1">
          <mxGeometry x="1710" y="530" width="90" height="30" as="geometry" />
        </mxCell>
        <mxCell id="-4G_2_kfRSxBcvjL3f6l-251" value="" style="strokeWidth=1;shadow=0;dashed=0;align=center;html=1;shape=mxgraph.mockup.forms.rrect;rSize=0;strokeColor=#999999;" vertex="1" parent="1">
          <mxGeometry x="1850" y="500" width="550" height="30" as="geometry" />
        </mxCell>
        <mxCell id="-4G_2_kfRSxBcvjL3f6l-252" value="&lt;span style=&quot;background-color: rgb(255, 255, 255);&quot;&gt;Inicio&lt;/span&gt;" style="strokeColor=inherit;fillColor=inherit;gradientColor=inherit;strokeWidth=1;shadow=0;dashed=0;align=center;html=1;shape=mxgraph.mockup.forms.rrect;rSize=0;fontSize=17;fontColor=#666666;whiteSpace=wrap;" vertex="1" parent="-4G_2_kfRSxBcvjL3f6l-251">
          <mxGeometry width="91.66666666666666" height="30" as="geometry" />
        </mxCell>
        <mxCell id="-4G_2_kfRSxBcvjL3f6l-253" value="&lt;span style=&quot;background-color: rgb(255, 255, 255);&quot;&gt;Horario&lt;/span&gt;" style="strokeColor=inherit;fillColor=inherit;gradientColor=inherit;strokeWidth=1;shadow=0;dashed=0;align=center;html=1;shape=mxgraph.mockup.forms.rrect;rSize=0;fontSize=17;fontColor=#666666;whiteSpace=wrap;" vertex="1" parent="-4G_2_kfRSxBcvjL3f6l-251">
          <mxGeometry x="91.66666666666666" width="91.66666666666666" height="30" as="geometry" />
        </mxCell>
        <mxCell id="-4G_2_kfRSxBcvjL3f6l-254" value="&lt;span style=&quot;background-color: rgb(51, 255, 255);&quot;&gt;Especialiad&lt;/span&gt;" style="strokeColor=inherit;fillColor=inherit;gradientColor=inherit;strokeWidth=1;shadow=0;dashed=0;align=center;html=1;shape=mxgraph.mockup.forms.rrect;rSize=0;fontSize=17;fontColor=#666666;whiteSpace=wrap;" vertex="1" parent="-4G_2_kfRSxBcvjL3f6l-251">
          <mxGeometry x="183.33333333333331" width="91.66666666666666" height="30" as="geometry" />
        </mxCell>
        <mxCell id="-4G_2_kfRSxBcvjL3f6l-255" value="Consultas" style="strokeColor=inherit;fillColor=inherit;gradientColor=inherit;strokeWidth=1;shadow=0;dashed=0;align=center;html=1;shape=mxgraph.mockup.forms.rrect;rSize=0;fontSize=17;fontColor=#666666;whiteSpace=wrap;" vertex="1" parent="-4G_2_kfRSxBcvjL3f6l-251">
          <mxGeometry x="275" width="91.66666666666666" height="30" as="geometry" />
        </mxCell>
        <mxCell id="-4G_2_kfRSxBcvjL3f6l-256" value="Examenes" style="strokeColor=inherit;fillColor=inherit;gradientColor=inherit;strokeWidth=1;shadow=0;dashed=0;align=center;html=1;shape=mxgraph.mockup.forms.rrect;rSize=0;fontSize=17;fontColor=#666666;whiteSpace=wrap;" vertex="1" parent="-4G_2_kfRSxBcvjL3f6l-251">
          <mxGeometry x="366.66666666666663" width="91.66666666666666" height="30" as="geometry" />
        </mxCell>
        <mxCell id="-4G_2_kfRSxBcvjL3f6l-257" value="Historial" style="strokeColor=inherit;fillColor=inherit;gradientColor=inherit;strokeWidth=1;shadow=0;dashed=0;align=center;html=1;shape=mxgraph.mockup.forms.rrect;rSize=0;fontSize=17;fontColor=#666666;whiteSpace=wrap;" vertex="1" parent="-4G_2_kfRSxBcvjL3f6l-251">
          <mxGeometry x="458.3333333333333" width="91.66666666666666" height="30" as="geometry" />
        </mxCell>
        <mxCell id="-4G_2_kfRSxBcvjL3f6l-258" value="&lt;font style=&quot;font-size: 14px;&quot;&gt;Reportes&lt;/font&gt;" style="strokeWidth=1;shadow=0;dashed=0;align=center;html=1;shape=mxgraph.mockup.forms.rrect;rSize=0;strokeColor=#999999;fontColor=#666666;align=left;spacingLeft=5;resizeWidth=1;" vertex="1" parent="1">
          <mxGeometry x="2310" y="530" width="90" height="30" as="geometry" />
        </mxCell>
        <mxCell id="-4G_2_kfRSxBcvjL3f6l-259" value="" style="strokeWidth=1;shadow=0;dashed=0;align=center;html=1;shape=mxgraph.mockup.forms.rrect;rSize=0;strokeColor=#999999;fillColor=#ffffff;recursiveResize=0;" vertex="1" parent="1">
          <mxGeometry x="1985" y="575" width="150" height="120" as="geometry" />
        </mxCell>
        <mxCell id="-4G_2_kfRSxBcvjL3f6l-260" value="Especialida 1" style="strokeWidth=1;shadow=0;dashed=0;align=center;html=1;shape=mxgraph.mockup.forms.rrect;rSize=0;fillColor=#eeeeee;strokeColor=#999999;gradientColor=#cccccc;align=left;spacingLeft=4;fontSize=17;fontColor=#666666;labelPosition=right;" vertex="1" parent="-4G_2_kfRSxBcvjL3f6l-259">
          <mxGeometry x="8" y="7.5" width="15" height="15" as="geometry" />
        </mxCell>
        <mxCell id="-4G_2_kfRSxBcvjL3f6l-261" value="Especialida 2" style="strokeWidth=1;shadow=0;dashed=0;align=center;html=1;shape=mxgraph.mockup.forms.rrect;rSize=0;fillColor=#eeeeee;strokeColor=#999999;gradientColor=#cccccc;align=left;spacingLeft=4;fontSize=17;fontColor=#666666;labelPosition=right;" vertex="1" parent="-4G_2_kfRSxBcvjL3f6l-259">
          <mxGeometry x="8" y="37.5" width="15" height="15" as="geometry" />
        </mxCell>
        <mxCell id="-4G_2_kfRSxBcvjL3f6l-262" value="Especialida 3" style="strokeWidth=1;shadow=0;dashed=0;align=center;html=1;shape=mxgraph.mockup.forms.checkbox;rSize=0;resizable=0;fillColor=#aaaaaa;strokeColor=#444444;gradientColor=#666666;align=left;spacingLeft=4;fontSize=17;fontColor=#008cff;labelPosition=right;" vertex="1" parent="-4G_2_kfRSxBcvjL3f6l-259">
          <mxGeometry x="9" y="66.5" width="15" height="15" as="geometry" />
        </mxCell>
        <mxCell id="-4G_2_kfRSxBcvjL3f6l-263" value="Especialida 4" style="strokeWidth=1;shadow=0;dashed=0;align=center;html=1;shape=mxgraph.mockup.forms.rrect;rSize=0;fillColor=#eeeeee;strokeColor=#999999;gradientColor=#cccccc;align=left;spacingLeft=4;fontSize=17;fontColor=#666666;labelPosition=right;" vertex="1" parent="-4G_2_kfRSxBcvjL3f6l-259">
          <mxGeometry x="8" y="97.5" width="15" height="15" as="geometry" />
        </mxCell>
        <mxCell id="-4G_2_kfRSxBcvjL3f6l-264" value="&lt;span style=&quot;white-space: pre;&quot;&gt; &lt;/span&gt;Q400" style="strokeWidth=1;shadow=0;dashed=0;align=left;html=1;shape=mxgraph.mockup.forms.spinner;strokeColor=#999999;spinLayout=right;spinStyle=normal;adjStyle=triangle;fillColor=#aaddff;fontSize=17;fontColor=#666666;mainText=;html=1;overflow=fill;" vertex="1" parent="1">
          <mxGeometry x="2166" y="595" width="130" height="40" as="geometry" />
        </mxCell>
        <mxCell id="-4G_2_kfRSxBcvjL3f6l-265" value="Modificar Horario" style="text;html=1;strokeColor=none;fillColor=none;align=center;verticalAlign=middle;whiteSpace=wrap;rounded=0;" vertex="1" parent="1">
          <mxGeometry x="1385" y="555" width="150" height="30" as="geometry" />
        </mxCell>
        <mxCell id="-4G_2_kfRSxBcvjL3f6l-266" value="Precio Consulra" style="text;html=1;strokeColor=none;fillColor=none;align=center;verticalAlign=middle;whiteSpace=wrap;rounded=0;" vertex="1" parent="1">
          <mxGeometry x="2156" y="565" width="150" height="30" as="geometry" />
        </mxCell>
        <mxCell id="-4G_2_kfRSxBcvjL3f6l-267" value="agregar" style="strokeWidth=1;shadow=0;dashed=0;align=center;html=1;shape=mxgraph.mockup.forms.rrect;rSize=5;strokeColor=none;fontColor=#ffffff;fillColor=#66bbff;fontSize=16;fontStyle=1;" vertex="1" parent="1">
          <mxGeometry x="2226" y="679.9999999999999" width="80" height="30" as="geometry" />
        </mxCell>
        <mxCell id="-4G_2_kfRSxBcvjL3f6l-336" value="Medichealt" style="strokeWidth=1;shadow=0;dashed=0;align=center;html=1;shape=mxgraph.mockup.containers.window;align=left;verticalAlign=top;spacingLeft=8;strokeColor2=#008cff;strokeColor3=#c4c4c4;fontColor=#666666;mainText=;fontSize=17;labelBackgroundColor=none;whiteSpace=wrap;" vertex="1" parent="1">
          <mxGeometry x="2460" y="470" width="550" height="380" as="geometry" />
        </mxCell>
        <mxCell id="-4G_2_kfRSxBcvjL3f6l-337" value="Menu Medico Historial" style="text;html=1;strokeColor=none;fillColor=none;align=center;verticalAlign=middle;whiteSpace=wrap;rounded=0;" vertex="1" parent="1">
          <mxGeometry x="2460" y="440" width="90" height="30" as="geometry" />
        </mxCell>
        <mxCell id="-4G_2_kfRSxBcvjL3f6l-338" value="" style="strokeWidth=1;shadow=0;dashed=0;align=center;html=1;shape=mxgraph.mockup.forms.rrect;rSize=0;strokeColor=#999999;" vertex="1" parent="1">
          <mxGeometry x="2460" y="500" width="550" height="30" as="geometry" />
        </mxCell>
        <mxCell id="-4G_2_kfRSxBcvjL3f6l-339" value="&lt;span style=&quot;background-color: rgb(255, 255, 255);&quot;&gt;Inicio&lt;/span&gt;" style="strokeColor=inherit;fillColor=inherit;gradientColor=inherit;strokeWidth=1;shadow=0;dashed=0;align=center;html=1;shape=mxgraph.mockup.forms.rrect;rSize=0;fontSize=17;fontColor=#666666;whiteSpace=wrap;" vertex="1" parent="-4G_2_kfRSxBcvjL3f6l-338">
          <mxGeometry width="91.66666666666666" height="30" as="geometry" />
        </mxCell>
        <mxCell id="-4G_2_kfRSxBcvjL3f6l-340" value="&lt;span style=&quot;background-color: rgb(255, 255, 255);&quot;&gt;Horario&lt;/span&gt;" style="strokeColor=inherit;fillColor=inherit;gradientColor=inherit;strokeWidth=1;shadow=0;dashed=0;align=center;html=1;shape=mxgraph.mockup.forms.rrect;rSize=0;fontSize=17;fontColor=#666666;whiteSpace=wrap;" vertex="1" parent="-4G_2_kfRSxBcvjL3f6l-338">
          <mxGeometry x="91.66666666666666" width="91.66666666666666" height="30" as="geometry" />
        </mxCell>
        <mxCell id="-4G_2_kfRSxBcvjL3f6l-341" value="&lt;span style=&quot;background-color: rgb(255, 255, 255);&quot;&gt;Especialiad&lt;/span&gt;" style="strokeColor=inherit;fillColor=inherit;gradientColor=inherit;strokeWidth=1;shadow=0;dashed=0;align=center;html=1;shape=mxgraph.mockup.forms.rrect;rSize=0;fontSize=17;fontColor=#666666;whiteSpace=wrap;" vertex="1" parent="-4G_2_kfRSxBcvjL3f6l-338">
          <mxGeometry x="183.33333333333331" width="91.66666666666666" height="30" as="geometry" />
        </mxCell>
        <mxCell id="-4G_2_kfRSxBcvjL3f6l-342" value="&lt;span style=&quot;background-color: rgb(255, 255, 255);&quot;&gt;Consultas&lt;/span&gt;" style="strokeColor=inherit;fillColor=inherit;gradientColor=inherit;strokeWidth=1;shadow=0;dashed=0;align=center;html=1;shape=mxgraph.mockup.forms.rrect;rSize=0;fontSize=17;fontColor=#666666;whiteSpace=wrap;" vertex="1" parent="-4G_2_kfRSxBcvjL3f6l-338">
          <mxGeometry x="275" width="91.66666666666666" height="30" as="geometry" />
        </mxCell>
        <mxCell id="-4G_2_kfRSxBcvjL3f6l-343" value="&lt;span style=&quot;background-color: rgb(255, 255, 255);&quot;&gt;Examenes&lt;/span&gt;" style="strokeColor=inherit;fillColor=inherit;gradientColor=inherit;strokeWidth=1;shadow=0;dashed=0;align=center;html=1;shape=mxgraph.mockup.forms.rrect;rSize=0;fontSize=17;fontColor=#666666;whiteSpace=wrap;" vertex="1" parent="-4G_2_kfRSxBcvjL3f6l-338">
          <mxGeometry x="366.66666666666663" width="91.66666666666666" height="30" as="geometry" />
        </mxCell>
        <mxCell id="-4G_2_kfRSxBcvjL3f6l-344" value="&lt;span style=&quot;background-color: rgb(51, 255, 255);&quot;&gt;Historial&lt;/span&gt;" style="strokeColor=inherit;fillColor=inherit;gradientColor=inherit;strokeWidth=1;shadow=0;dashed=0;align=center;html=1;shape=mxgraph.mockup.forms.rrect;rSize=0;fontSize=17;fontColor=#666666;whiteSpace=wrap;" vertex="1" parent="-4G_2_kfRSxBcvjL3f6l-338">
          <mxGeometry x="458.3333333333333" width="91.66666666666666" height="30" as="geometry" />
        </mxCell>
        <mxCell id="-4G_2_kfRSxBcvjL3f6l-345" value="&lt;font style=&quot;font-size: 14px;&quot;&gt;Reportes&lt;/font&gt;" style="strokeWidth=1;shadow=0;dashed=0;align=center;html=1;shape=mxgraph.mockup.forms.rrect;rSize=0;strokeColor=#999999;fontColor=#666666;align=left;spacingLeft=5;resizeWidth=1;" vertex="1" parent="1">
          <mxGeometry x="2920" y="530" width="90" height="30" as="geometry" />
        </mxCell>
        <mxCell id="-4G_2_kfRSxBcvjL3f6l-346" value="&lt;font style=&quot;font-size: 10px;&quot;&gt;Ver Historial&lt;/font&gt;" style="strokeWidth=1;shadow=0;dashed=0;align=center;html=1;shape=mxgraph.mockup.buttons.button;strokeColor=#666666;fontColor=#ffffff;mainText=;buttonStyle=round;fontSize=17;fontStyle=1;fillColor=#008cff;whiteSpace=wrap;" vertex="1" parent="1">
          <mxGeometry x="2834" y="571.25" width="86" height="25" as="geometry" />
        </mxCell>
        <mxCell id="-4G_2_kfRSxBcvjL3f6l-347" value="&lt;span style=&quot;font-size: 10px;&quot;&gt;Paciente :A&amp;nbsp;&amp;nbsp;&lt;span style=&quot;white-space: pre;&quot;&gt; &lt;/span&gt;&lt;span style=&quot;white-space: pre;&quot;&gt; &lt;/span&gt;Consultas : X&lt;/span&gt;" style="strokeWidth=1;shadow=0;dashed=0;align=center;html=1;shape=mxgraph.mockup.text.textBox;fontColor=#666666;align=left;fontSize=17;spacingLeft=4;spacingTop=-3;whiteSpace=wrap;strokeColor=#666666;mainText=" vertex="1" parent="1">
          <mxGeometry x="2560" y="568.75" width="250" height="30" as="geometry" />
        </mxCell>
        <mxCell id="-4G_2_kfRSxBcvjL3f6l-348" value="&lt;font style=&quot;font-size: 10px;&quot;&gt;Ver Historial&lt;/font&gt;" style="strokeWidth=1;shadow=0;dashed=0;align=center;html=1;shape=mxgraph.mockup.buttons.button;strokeColor=#666666;fontColor=#ffffff;mainText=;buttonStyle=round;fontSize=17;fontStyle=1;fillColor=#008cff;whiteSpace=wrap;" vertex="1" parent="1">
          <mxGeometry x="2834" y="602.5" width="86" height="25" as="geometry" />
        </mxCell>
        <mxCell id="-4G_2_kfRSxBcvjL3f6l-349" value="&lt;span style=&quot;font-size: 10px;&quot;&gt;Paciente :A&amp;nbsp;&amp;nbsp;&lt;span style=&quot;white-space: pre;&quot;&gt; &lt;/span&gt;&lt;span style=&quot;white-space: pre;&quot;&gt; &lt;/span&gt;Consultas : X&lt;/span&gt;" style="strokeWidth=1;shadow=0;dashed=0;align=center;html=1;shape=mxgraph.mockup.text.textBox;fontColor=#666666;align=left;fontSize=17;spacingLeft=4;spacingTop=-3;whiteSpace=wrap;strokeColor=#666666;mainText=" vertex="1" parent="1">
          <mxGeometry x="2560" y="600" width="250" height="30" as="geometry" />
        </mxCell>
        <mxCell id="-4G_2_kfRSxBcvjL3f6l-350" value="&lt;font style=&quot;font-size: 10px;&quot;&gt;Ver Historial&lt;/font&gt;" style="strokeWidth=1;shadow=0;dashed=0;align=center;html=1;shape=mxgraph.mockup.buttons.button;strokeColor=#666666;fontColor=#ffffff;mainText=;buttonStyle=round;fontSize=17;fontStyle=1;fillColor=#008cff;whiteSpace=wrap;" vertex="1" parent="1">
          <mxGeometry x="2834" y="633.75" width="86" height="25" as="geometry" />
        </mxCell>
        <mxCell id="-4G_2_kfRSxBcvjL3f6l-351" value="&lt;span style=&quot;font-size: 10px;&quot;&gt;Paciente :A&amp;nbsp;&amp;nbsp;&lt;span style=&quot;white-space: pre;&quot;&gt; &lt;/span&gt;&lt;span style=&quot;white-space: pre;&quot;&gt; &lt;/span&gt;Consultas : X&lt;/span&gt;" style="strokeWidth=1;shadow=0;dashed=0;align=center;html=1;shape=mxgraph.mockup.text.textBox;fontColor=#666666;align=left;fontSize=17;spacingLeft=4;spacingTop=-3;whiteSpace=wrap;strokeColor=#666666;mainText=" vertex="1" parent="1">
          <mxGeometry x="2560" y="631.25" width="250" height="30" as="geometry" />
        </mxCell>
        <mxCell id="-4G_2_kfRSxBcvjL3f6l-352" value="&lt;font style=&quot;font-size: 10px;&quot;&gt;Ver Historial&lt;/font&gt;" style="strokeWidth=1;shadow=0;dashed=0;align=center;html=1;shape=mxgraph.mockup.buttons.button;strokeColor=#666666;fontColor=#ffffff;mainText=;buttonStyle=round;fontSize=17;fontStyle=1;fillColor=#008cff;whiteSpace=wrap;" vertex="1" parent="1">
          <mxGeometry x="2834" y="663.75" width="86" height="25" as="geometry" />
        </mxCell>
        <mxCell id="-4G_2_kfRSxBcvjL3f6l-353" value="&lt;span style=&quot;font-size: 10px;&quot;&gt;Paciente :A&amp;nbsp;&amp;nbsp;&lt;span style=&quot;white-space: pre;&quot;&gt; &lt;/span&gt;&lt;span style=&quot;white-space: pre;&quot;&gt; &lt;/span&gt;Consultas : X&lt;/span&gt;" style="strokeWidth=1;shadow=0;dashed=0;align=center;html=1;shape=mxgraph.mockup.text.textBox;fontColor=#666666;align=left;fontSize=17;spacingLeft=4;spacingTop=-3;whiteSpace=wrap;strokeColor=#666666;mainText=" vertex="1" parent="1">
          <mxGeometry x="2560" y="661.25" width="250" height="30" as="geometry" />
        </mxCell>
        <mxCell id="-4G_2_kfRSxBcvjL3f6l-354" value="&lt;font style=&quot;font-size: 10px;&quot;&gt;Ver Historial&lt;/font&gt;" style="strokeWidth=1;shadow=0;dashed=0;align=center;html=1;shape=mxgraph.mockup.buttons.button;strokeColor=#666666;fontColor=#ffffff;mainText=;buttonStyle=round;fontSize=17;fontStyle=1;fillColor=#008cff;whiteSpace=wrap;" vertex="1" parent="1">
          <mxGeometry x="2834" y="693.75" width="86" height="25" as="geometry" />
        </mxCell>
        <mxCell id="-4G_2_kfRSxBcvjL3f6l-355" value="&lt;span style=&quot;font-size: 10px;&quot;&gt;Paciente :A&amp;nbsp;&amp;nbsp;&lt;span style=&quot;white-space: pre;&quot;&gt; &lt;/span&gt;&lt;span style=&quot;white-space: pre;&quot;&gt; &lt;/span&gt;Consultas : X&lt;/span&gt;" style="strokeWidth=1;shadow=0;dashed=0;align=center;html=1;shape=mxgraph.mockup.text.textBox;fontColor=#666666;align=left;fontSize=17;spacingLeft=4;spacingTop=-3;whiteSpace=wrap;strokeColor=#666666;mainText=" vertex="1" parent="1">
          <mxGeometry x="2560" y="691.25" width="250" height="30" as="geometry" />
        </mxCell>
        <mxCell id="-4G_2_kfRSxBcvjL3f6l-356" value="Medichealt" style="strokeWidth=1;shadow=0;dashed=0;align=center;html=1;shape=mxgraph.mockup.containers.window;align=left;verticalAlign=top;spacingLeft=8;strokeColor2=#008cff;strokeColor3=#c4c4c4;fontColor=#666666;mainText=;fontSize=17;labelBackgroundColor=none;whiteSpace=wrap;" vertex="1" parent="1">
          <mxGeometry x="3050" y="470" width="550" height="380" as="geometry" />
        </mxCell>
        <mxCell id="-4G_2_kfRSxBcvjL3f6l-357" value="Menu Medico Historial" style="text;html=1;strokeColor=none;fillColor=none;align=center;verticalAlign=middle;whiteSpace=wrap;rounded=0;" vertex="1" parent="1">
          <mxGeometry x="3040" y="440" width="90" height="30" as="geometry" />
        </mxCell>
        <mxCell id="-4G_2_kfRSxBcvjL3f6l-358" value="" style="strokeWidth=1;shadow=0;dashed=0;align=center;html=1;shape=mxgraph.mockup.forms.rrect;rSize=0;strokeColor=#999999;" vertex="1" parent="1">
          <mxGeometry x="3050" y="500" width="550" height="30" as="geometry" />
        </mxCell>
        <mxCell id="-4G_2_kfRSxBcvjL3f6l-359" value="&lt;span style=&quot;background-color: rgb(255, 255, 255);&quot;&gt;Inicio&lt;/span&gt;" style="strokeColor=inherit;fillColor=inherit;gradientColor=inherit;strokeWidth=1;shadow=0;dashed=0;align=center;html=1;shape=mxgraph.mockup.forms.rrect;rSize=0;fontSize=17;fontColor=#666666;whiteSpace=wrap;" vertex="1" parent="-4G_2_kfRSxBcvjL3f6l-358">
          <mxGeometry x="-1760" y="-5" width="91.66666666666666" height="30" as="geometry" />
        </mxCell>
        <mxCell id="-4G_2_kfRSxBcvjL3f6l-360" value="&lt;span style=&quot;background-color: rgb(255, 255, 255);&quot;&gt;Horario&lt;/span&gt;" style="strokeColor=inherit;fillColor=inherit;gradientColor=inherit;strokeWidth=1;shadow=0;dashed=0;align=center;html=1;shape=mxgraph.mockup.forms.rrect;rSize=0;fontSize=17;fontColor=#666666;whiteSpace=wrap;" vertex="1" parent="-4G_2_kfRSxBcvjL3f6l-358">
          <mxGeometry x="-1668.3333333333333" y="-5" width="91.66666666666666" height="30" as="geometry" />
        </mxCell>
        <mxCell id="-4G_2_kfRSxBcvjL3f6l-361" value="&lt;span style=&quot;background-color: rgb(255, 255, 255);&quot;&gt;Especialiad&lt;/span&gt;" style="strokeColor=inherit;fillColor=inherit;gradientColor=inherit;strokeWidth=1;shadow=0;dashed=0;align=center;html=1;shape=mxgraph.mockup.forms.rrect;rSize=0;fontSize=17;fontColor=#666666;whiteSpace=wrap;" vertex="1" parent="-4G_2_kfRSxBcvjL3f6l-358">
          <mxGeometry x="-1576.6666666666667" y="-5" width="91.66666666666666" height="30" as="geometry" />
        </mxCell>
        <mxCell id="-4G_2_kfRSxBcvjL3f6l-362" value="&lt;span style=&quot;background-color: rgb(255, 255, 255);&quot;&gt;Consultas&lt;/span&gt;" style="strokeColor=inherit;fillColor=inherit;gradientColor=inherit;strokeWidth=1;shadow=0;dashed=0;align=center;html=1;shape=mxgraph.mockup.forms.rrect;rSize=0;fontSize=17;fontColor=#666666;whiteSpace=wrap;" vertex="1" parent="-4G_2_kfRSxBcvjL3f6l-358">
          <mxGeometry x="-1485" y="-5" width="91.66666666666666" height="30" as="geometry" />
        </mxCell>
        <mxCell id="-4G_2_kfRSxBcvjL3f6l-363" value="&lt;span style=&quot;background-color: rgb(255, 255, 255);&quot;&gt;Examenes&lt;/span&gt;" style="strokeColor=inherit;fillColor=inherit;gradientColor=inherit;strokeWidth=1;shadow=0;dashed=0;align=center;html=1;shape=mxgraph.mockup.forms.rrect;rSize=0;fontSize=17;fontColor=#666666;whiteSpace=wrap;" vertex="1" parent="-4G_2_kfRSxBcvjL3f6l-358">
          <mxGeometry x="-1393.3333333333335" y="-5" width="91.66666666666666" height="30" as="geometry" />
        </mxCell>
        <mxCell id="-4G_2_kfRSxBcvjL3f6l-364" value="&lt;span style=&quot;background-color: rgb(255, 255, 255);&quot;&gt;Historial&lt;/span&gt;" style="strokeColor=inherit;fillColor=inherit;gradientColor=inherit;strokeWidth=1;shadow=0;dashed=0;align=center;html=1;shape=mxgraph.mockup.forms.rrect;rSize=0;fontSize=17;fontColor=#666666;whiteSpace=wrap;" vertex="1" parent="-4G_2_kfRSxBcvjL3f6l-358">
          <mxGeometry x="458.3333333333333" width="91.66666666666666" height="30" as="geometry" />
        </mxCell>
        <mxCell id="-4G_2_kfRSxBcvjL3f6l-365" value="&lt;font style=&quot;font-size: 14px; background-color: rgb(51, 255, 255);&quot;&gt;Reportes&lt;/font&gt;" style="strokeWidth=1;shadow=0;dashed=0;align=center;html=1;shape=mxgraph.mockup.forms.rrect;rSize=0;strokeColor=#999999;fontColor=#666666;align=left;spacingLeft=5;resizeWidth=1;" vertex="1" parent="1">
          <mxGeometry x="3510" y="530" width="90" height="30" as="geometry" />
        </mxCell>
        <mxCell id="-4G_2_kfRSxBcvjL3f6l-366" value="&lt;span style=&quot;font-size: 10px;&quot;&gt;Generar reporte en pdf&lt;/span&gt;" style="strokeWidth=1;shadow=0;dashed=0;align=center;html=1;shape=mxgraph.mockup.text.textBox;fontColor=#666666;align=left;fontSize=17;spacingLeft=4;spacingTop=-3;whiteSpace=wrap;strokeColor=#666666;mainText=" vertex="1" parent="1">
          <mxGeometry x="3140" y="580" width="250" height="30" as="geometry" />
        </mxCell>
        <mxCell id="-4G_2_kfRSxBcvjL3f6l-367" value="&lt;font style=&quot;font-size: 10px;&quot;&gt;Descarga&lt;/font&gt;" style="strokeWidth=1;shadow=0;dashed=0;align=center;html=1;shape=mxgraph.mockup.forms.rrect;rSize=5;strokeColor=none;fontColor=#ffffff;fillColor=#66bbff;fontSize=16;fontStyle=1;" vertex="1" parent="1">
          <mxGeometry x="3300" y="585" width="70" height="20" as="geometry" />
        </mxCell>
        <mxCell id="-4G_2_kfRSxBcvjL3f6l-368" value="Saldo" style="text;html=1;strokeColor=none;fillColor=none;align=left;verticalAlign=middle;whiteSpace=wrap;rounded=0;" vertex="1" parent="1">
          <mxGeometry x="3140" y="550" width="187" height="30" as="geometry" />
        </mxCell>
        <mxCell id="-4G_2_kfRSxBcvjL3f6l-369" value="&lt;span style=&quot;font-size: 10px;&quot;&gt;Generar reporte en pdf&lt;/span&gt;" style="strokeWidth=1;shadow=0;dashed=0;align=center;html=1;shape=mxgraph.mockup.text.textBox;fontColor=#666666;align=left;fontSize=17;spacingLeft=4;spacingTop=-3;whiteSpace=wrap;strokeColor=#666666;mainText=" vertex="1" parent="1">
          <mxGeometry x="3140" y="655" width="250" height="30" as="geometry" />
        </mxCell>
        <mxCell id="-4G_2_kfRSxBcvjL3f6l-370" value="Top 5 Pacientes" style="text;html=1;strokeColor=none;fillColor=none;align=left;verticalAlign=middle;whiteSpace=wrap;rounded=0;" vertex="1" parent="1">
          <mxGeometry x="3140" y="625" width="187" height="30" as="geometry" />
        </mxCell>
        <mxCell id="-4G_2_kfRSxBcvjL3f6l-371" value="&lt;font style=&quot;font-size: 10px;&quot;&gt;Descarga&lt;/font&gt;" style="strokeWidth=1;shadow=0;dashed=0;align=center;html=1;shape=mxgraph.mockup.forms.rrect;rSize=5;strokeColor=none;fontColor=#ffffff;fillColor=#66bbff;fontSize=16;fontStyle=1;" vertex="1" parent="1">
          <mxGeometry x="3300" y="660" width="70" height="20" as="geometry" />
        </mxCell>
        <mxCell id="-4G_2_kfRSxBcvjL3f6l-372" value="&lt;span style=&quot;font-size: 10px;&quot;&gt;Generar reporte en pdf&lt;/span&gt;" style="strokeWidth=1;shadow=0;dashed=0;align=center;html=1;shape=mxgraph.mockup.text.textBox;fontColor=#666666;align=left;fontSize=17;spacingLeft=4;spacingTop=-3;whiteSpace=wrap;strokeColor=#666666;mainText=" vertex="1" parent="1">
          <mxGeometry x="3140" y="725" width="250" height="30" as="geometry" />
        </mxCell>
        <mxCell id="-4G_2_kfRSxBcvjL3f6l-373" value="Top 5 Especialidades" style="text;html=1;strokeColor=none;fillColor=none;align=left;verticalAlign=middle;whiteSpace=wrap;rounded=0;" vertex="1" parent="1">
          <mxGeometry x="3140" y="695" width="187" height="30" as="geometry" />
        </mxCell>
        <mxCell id="-4G_2_kfRSxBcvjL3f6l-374" value="&lt;font style=&quot;font-size: 10px;&quot;&gt;Descarga&lt;/font&gt;" style="strokeWidth=1;shadow=0;dashed=0;align=center;html=1;shape=mxgraph.mockup.forms.rrect;rSize=5;strokeColor=none;fontColor=#ffffff;fillColor=#66bbff;fontSize=16;fontStyle=1;" vertex="1" parent="1">
          <mxGeometry x="3300" y="730" width="70" height="20" as="geometry" />
        </mxCell>
        <mxCell id="-4G_2_kfRSxBcvjL3f6l-417" value="Medichealt" style="strokeWidth=1;shadow=0;dashed=0;align=center;html=1;shape=mxgraph.mockup.containers.window;align=left;verticalAlign=top;spacingLeft=8;strokeColor2=#008cff;strokeColor3=#c4c4c4;fontColor=#666666;mainText=;fontSize=17;labelBackgroundColor=none;whiteSpace=wrap;" vertex="1" parent="1">
          <mxGeometry x="1220" y="40" width="550" height="380" as="geometry" />
        </mxCell>
        <mxCell id="-4G_2_kfRSxBcvjL3f6l-418" value="" style="strokeWidth=1;shadow=0;dashed=0;align=center;html=1;shape=mxgraph.mockup.forms.rrect;rSize=0;strokeColor=#999999;" vertex="1" parent="1">
          <mxGeometry x="1220" y="70" width="550" height="30" as="geometry" />
        </mxCell>
        <mxCell id="-4G_2_kfRSxBcvjL3f6l-419" value="&lt;span style=&quot;background-color: rgb(255, 255, 255);&quot;&gt;Inicio&lt;/span&gt;" style="strokeColor=inherit;fillColor=inherit;gradientColor=inherit;strokeWidth=1;shadow=0;dashed=0;align=center;html=1;shape=mxgraph.mockup.forms.rrect;rSize=0;fontSize=17;fontColor=#666666;whiteSpace=wrap;" vertex="1" parent="-4G_2_kfRSxBcvjL3f6l-418">
          <mxGeometry width="91.66666666666666" height="30" as="geometry" />
        </mxCell>
        <mxCell id="-4G_2_kfRSxBcvjL3f6l-420" value="Consulta" style="strokeColor=inherit;fillColor=inherit;gradientColor=inherit;strokeWidth=1;shadow=0;dashed=0;align=center;html=1;shape=mxgraph.mockup.forms.rrect;rSize=0;fontSize=17;fontColor=#666666;whiteSpace=wrap;" vertex="1" parent="-4G_2_kfRSxBcvjL3f6l-418">
          <mxGeometry x="91.66666666666666" width="91.66666666666666" height="30" as="geometry" />
        </mxCell>
        <mxCell id="-4G_2_kfRSxBcvjL3f6l-421" value="&lt;span style=&quot;background-color: rgb(255, 255, 255);&quot;&gt;Examenes&lt;/span&gt;" style="strokeColor=inherit;fillColor=inherit;gradientColor=inherit;strokeWidth=1;shadow=0;dashed=0;align=center;html=1;shape=mxgraph.mockup.forms.rrect;rSize=0;fontSize=17;fontColor=#666666;whiteSpace=wrap;" vertex="1" parent="-4G_2_kfRSxBcvjL3f6l-418">
          <mxGeometry x="183.33333333333331" width="91.66666666666666" height="30" as="geometry" />
        </mxCell>
        <mxCell id="-4G_2_kfRSxBcvjL3f6l-422" value="&lt;span style=&quot;background-color: rgb(51, 255, 255);&quot;&gt;Reportes&lt;/span&gt;" style="strokeColor=inherit;fillColor=inherit;gradientColor=inherit;strokeWidth=1;shadow=0;dashed=0;align=center;html=1;shape=mxgraph.mockup.forms.rrect;rSize=0;fontSize=17;fontColor=#666666;whiteSpace=wrap;" vertex="1" parent="-4G_2_kfRSxBcvjL3f6l-418">
          <mxGeometry x="275" width="91.66666666666666" height="30" as="geometry" />
        </mxCell>
        <mxCell id="-4G_2_kfRSxBcvjL3f6l-423" value="" style="strokeColor=inherit;fillColor=inherit;gradientColor=inherit;strokeWidth=1;shadow=0;dashed=0;align=center;html=1;shape=mxgraph.mockup.forms.rrect;rSize=0;fontSize=17;fontColor=#666666;whiteSpace=wrap;" vertex="1" parent="-4G_2_kfRSxBcvjL3f6l-418">
          <mxGeometry x="366.66666666666663" width="91.66666666666666" height="30" as="geometry" />
        </mxCell>
        <mxCell id="-4G_2_kfRSxBcvjL3f6l-424" value="" style="strokeColor=inherit;fillColor=inherit;gradientColor=inherit;strokeWidth=1;shadow=0;dashed=0;align=center;html=1;shape=mxgraph.mockup.forms.rrect;rSize=0;fontSize=17;fontColor=#666666;whiteSpace=wrap;" vertex="1" parent="-4G_2_kfRSxBcvjL3f6l-418">
          <mxGeometry x="458.3333333333333" width="91.66666666666666" height="30" as="geometry" />
        </mxCell>
        <mxCell id="-4G_2_kfRSxBcvjL3f6l-425" value="Menu de Examenes paciente" style="text;html=1;strokeColor=none;fillColor=none;align=center;verticalAlign=middle;whiteSpace=wrap;rounded=0;" vertex="1" parent="1">
          <mxGeometry x="1220" y="10" width="129" height="30" as="geometry" />
        </mxCell>
        <mxCell id="-4G_2_kfRSxBcvjL3f6l-426" value="&lt;span style=&quot;font-size: 10px;&quot;&gt;Generar reporte en pdf&lt;/span&gt;" style="strokeWidth=1;shadow=0;dashed=0;align=center;html=1;shape=mxgraph.mockup.text.textBox;fontColor=#666666;align=left;fontSize=17;spacingLeft=4;spacingTop=-3;whiteSpace=wrap;strokeColor=#666666;mainText=" vertex="1" parent="1">
          <mxGeometry x="1340" y="140" width="250" height="30" as="geometry" />
        </mxCell>
        <mxCell id="-4G_2_kfRSxBcvjL3f6l-427" value="Historial Médico" style="text;html=1;strokeColor=none;fillColor=none;align=left;verticalAlign=middle;whiteSpace=wrap;rounded=0;" vertex="1" parent="1">
          <mxGeometry x="1340" y="110" width="187" height="30" as="geometry" />
        </mxCell>
        <mxCell id="-4G_2_kfRSxBcvjL3f6l-428" value="&lt;span style=&quot;font-size: 10px;&quot;&gt;Generar reporte en pdf&lt;/span&gt;" style="strokeWidth=1;shadow=0;dashed=0;align=center;html=1;shape=mxgraph.mockup.text.textBox;fontColor=#666666;align=left;fontSize=17;spacingLeft=4;spacingTop=-3;whiteSpace=wrap;strokeColor=#666666;mainText=" vertex="1" parent="1">
          <mxGeometry x="1340" y="215" width="250" height="30" as="geometry" />
        </mxCell>
        <mxCell id="-4G_2_kfRSxBcvjL3f6l-429" value="Historial de Recargas" style="text;html=1;strokeColor=none;fillColor=none;align=left;verticalAlign=middle;whiteSpace=wrap;rounded=0;" vertex="1" parent="1">
          <mxGeometry x="1340" y="185" width="187" height="30" as="geometry" />
        </mxCell>
        <mxCell id="-4G_2_kfRSxBcvjL3f6l-430" value="&lt;span style=&quot;font-size: 10px;&quot;&gt;Generar reporte en pdf&lt;/span&gt;" style="strokeWidth=1;shadow=0;dashed=0;align=center;html=1;shape=mxgraph.mockup.text.textBox;fontColor=#666666;align=left;fontSize=17;spacingLeft=4;spacingTop=-3;whiteSpace=wrap;strokeColor=#666666;mainText=" vertex="1" parent="1">
          <mxGeometry x="1340" y="285" width="250" height="30" as="geometry" />
        </mxCell>
        <mxCell id="-4G_2_kfRSxBcvjL3f6l-431" value="Consultas" style="text;html=1;strokeColor=none;fillColor=none;align=left;verticalAlign=middle;whiteSpace=wrap;rounded=0;" vertex="1" parent="1">
          <mxGeometry x="1340" y="255" width="187" height="30" as="geometry" />
        </mxCell>
        <mxCell id="-4G_2_kfRSxBcvjL3f6l-432" value="&lt;font style=&quot;font-size: 10px;&quot;&gt;Descarga&lt;/font&gt;" style="strokeWidth=1;shadow=0;dashed=0;align=center;html=1;shape=mxgraph.mockup.forms.rrect;rSize=5;strokeColor=none;fontColor=#ffffff;fillColor=#66bbff;fontSize=16;fontStyle=1;" vertex="1" parent="1">
          <mxGeometry x="1510" y="145" width="70" height="20" as="geometry" />
        </mxCell>
        <mxCell id="-4G_2_kfRSxBcvjL3f6l-433" value="&lt;font style=&quot;font-size: 10px;&quot;&gt;Descarga&lt;/font&gt;" style="strokeWidth=1;shadow=0;dashed=0;align=center;html=1;shape=mxgraph.mockup.forms.rrect;rSize=5;strokeColor=none;fontColor=#ffffff;fillColor=#66bbff;fontSize=16;fontStyle=1;" vertex="1" parent="1">
          <mxGeometry x="1510" y="220" width="70" height="20" as="geometry" />
        </mxCell>
        <mxCell id="-4G_2_kfRSxBcvjL3f6l-434" value="&lt;font style=&quot;font-size: 10px;&quot;&gt;Descarga&lt;/font&gt;" style="strokeWidth=1;shadow=0;dashed=0;align=center;html=1;shape=mxgraph.mockup.forms.rrect;rSize=5;strokeColor=none;fontColor=#ffffff;fillColor=#66bbff;fontSize=16;fontStyle=1;" vertex="1" parent="1">
          <mxGeometry x="1509" y="290" width="70" height="20" as="geometry" />
        </mxCell>
        <mxCell id="-4G_2_kfRSxBcvjL3f6l-435" value="&lt;span style=&quot;font-size: 10px;&quot;&gt;Generar reporte en pdf&lt;/span&gt;" style="strokeWidth=1;shadow=0;dashed=0;align=center;html=1;shape=mxgraph.mockup.text.textBox;fontColor=#666666;align=left;fontSize=17;spacingLeft=4;spacingTop=-3;whiteSpace=wrap;strokeColor=#666666;mainText=" vertex="1" parent="1">
          <mxGeometry x="1340" y="360" width="250" height="30" as="geometry" />
        </mxCell>
        <mxCell id="-4G_2_kfRSxBcvjL3f6l-436" value="Examenes" style="text;html=1;strokeColor=none;fillColor=none;align=left;verticalAlign=middle;whiteSpace=wrap;rounded=0;" vertex="1" parent="1">
          <mxGeometry x="1340" y="330" width="187" height="30" as="geometry" />
        </mxCell>
        <mxCell id="-4G_2_kfRSxBcvjL3f6l-437" value="&lt;font style=&quot;font-size: 10px;&quot;&gt;Descarga&lt;/font&gt;" style="strokeWidth=1;shadow=0;dashed=0;align=center;html=1;shape=mxgraph.mockup.forms.rrect;rSize=5;strokeColor=none;fontColor=#ffffff;fillColor=#66bbff;fontSize=16;fontStyle=1;" vertex="1" parent="1">
          <mxGeometry x="1509" y="365" width="70" height="20" as="geometry" />
        </mxCell>
        <mxCell id="-4G_2_kfRSxBcvjL3f6l-438" value="&lt;span style=&quot;background-color: rgb(51, 255, 255);&quot;&gt;&lt;font style=&quot;font-size: 14px;&quot;&gt;Agregar Exámanes&lt;/font&gt;&lt;/span&gt;" style="strokeWidth=1;shadow=0;dashed=0;align=center;html=1;shape=mxgraph.mockup.text.textBox;fontColor=#666666;align=left;fontSize=17;spacingLeft=4;spacingTop=-3;whiteSpace=wrap;strokeColor=#666666;mainText=" vertex="1" parent="1">
          <mxGeometry x="1241" y="980" width="150" height="30" as="geometry" />
        </mxCell>
        <mxCell id="-4G_2_kfRSxBcvjL3f6l-439" value="&lt;font style=&quot;font-size: 10px;&quot;&gt;Examenes Pendientes&lt;/font&gt;" style="strokeWidth=1;shadow=0;dashed=0;align=center;html=1;shape=mxgraph.mockup.text.textBox;fontColor=#666666;align=left;fontSize=17;spacingLeft=4;spacingTop=-3;whiteSpace=wrap;strokeColor=#666666;mainText=" vertex="1" parent="1">
          <mxGeometry x="1241" y="1010" width="150" height="30" as="geometry" />
        </mxCell>
        <mxCell id="-4G_2_kfRSxBcvjL3f6l-440" value="" style="strokeWidth=1;shadow=0;dashed=0;align=center;html=1;shape=mxgraph.mockup.text.textBox;fontColor=#666666;align=left;fontSize=17;spacingLeft=4;spacingTop=-3;whiteSpace=wrap;strokeColor=#666666;mainText=" vertex="1" parent="1">
          <mxGeometry x="1391" y="980" width="390" height="290" as="geometry" />
        </mxCell>
        <mxCell id="-4G_2_kfRSxBcvjL3f6l-441" value="Editar" style="strokeWidth=1;shadow=0;dashed=0;align=center;html=1;shape=mxgraph.mockup.forms.rrect;rSize=5;strokeColor=none;fontColor=#ffffff;fillColor=#66bbff;fontSize=16;fontStyle=1;" vertex="1" parent="1">
          <mxGeometry x="1580" y="1105" width="80" height="30" as="geometry" />
        </mxCell>
        <mxCell id="-4G_2_kfRSxBcvjL3f6l-442" value="&lt;span style=&quot;font-size: 10px;&quot;&gt;Examen :A&amp;nbsp; Paciente B&amp;nbsp;&lt;/span&gt;" style="strokeWidth=1;shadow=0;dashed=0;align=center;html=1;shape=mxgraph.mockup.text.textBox;fontColor=#666666;align=left;fontSize=17;spacingLeft=4;spacingTop=-3;whiteSpace=wrap;strokeColor=#666666;mainText=" vertex="1" parent="1">
          <mxGeometry x="1410" y="990" width="250" height="30" as="geometry" />
        </mxCell>
        <mxCell id="-4G_2_kfRSxBcvjL3f6l-443" value="Costo" style="text;html=1;strokeColor=none;fillColor=none;align=center;verticalAlign=middle;whiteSpace=wrap;rounded=0;" vertex="1" parent="1">
          <mxGeometry x="1400" y="1035" width="60" height="30" as="geometry" />
        </mxCell>
        <mxCell id="-4G_2_kfRSxBcvjL3f6l-444" value="" style="strokeWidth=1;shadow=0;dashed=0;align=center;html=1;shape=mxgraph.mockup.text.textBox;fontColor=#666666;align=left;fontSize=17;spacingLeft=4;spacingTop=-3;whiteSpace=wrap;strokeColor=#666666;mainText=" vertex="1" parent="1">
          <mxGeometry x="1460" y="1035" width="200" height="25" as="geometry" />
        </mxCell>
        <mxCell id="-4G_2_kfRSxBcvjL3f6l-463" value="Medichealt" style="strokeWidth=1;shadow=0;dashed=0;align=center;html=1;shape=mxgraph.mockup.containers.window;align=left;verticalAlign=top;spacingLeft=8;strokeColor2=#008cff;strokeColor3=#c4c4c4;fontColor=#666666;mainText=;fontSize=17;labelBackgroundColor=none;whiteSpace=wrap;" vertex="1" parent="1">
          <mxGeometry x="1860" y="905" width="550" height="380" as="geometry" />
        </mxCell>
        <mxCell id="-4G_2_kfRSxBcvjL3f6l-464" value="" style="strokeWidth=1;shadow=0;dashed=0;align=center;html=1;shape=mxgraph.mockup.forms.rrect;rSize=0;strokeColor=#999999;" vertex="1" parent="1">
          <mxGeometry x="1860" y="935" width="550" height="30" as="geometry" />
        </mxCell>
        <mxCell id="-4G_2_kfRSxBcvjL3f6l-465" value="&lt;span style=&quot;background-color: rgb(255, 255, 255);&quot;&gt;Inicio&lt;/span&gt;" style="strokeColor=inherit;fillColor=inherit;gradientColor=inherit;strokeWidth=1;shadow=0;dashed=0;align=center;html=1;shape=mxgraph.mockup.forms.rrect;rSize=0;fontSize=17;fontColor=#666666;whiteSpace=wrap;" vertex="1" parent="-4G_2_kfRSxBcvjL3f6l-464">
          <mxGeometry width="91.66666666666666" height="30" as="geometry" />
        </mxCell>
        <mxCell id="-4G_2_kfRSxBcvjL3f6l-466" value="&lt;span style=&quot;background-color: rgb(255, 255, 255);&quot;&gt;Examenes&lt;/span&gt;" style="strokeColor=inherit;fillColor=inherit;gradientColor=inherit;strokeWidth=1;shadow=0;dashed=0;align=center;html=1;shape=mxgraph.mockup.forms.rrect;rSize=0;fontSize=17;fontColor=#666666;whiteSpace=wrap;" vertex="1" parent="-4G_2_kfRSxBcvjL3f6l-464">
          <mxGeometry x="91.66666666666666" width="91.66666666666666" height="30" as="geometry" />
        </mxCell>
        <mxCell id="-4G_2_kfRSxBcvjL3f6l-467" value="&lt;span style=&quot;background-color: rgb(51, 255, 255);&quot;&gt;Reportes&lt;/span&gt;" style="strokeColor=inherit;fillColor=inherit;gradientColor=inherit;strokeWidth=1;shadow=0;dashed=0;align=center;html=1;shape=mxgraph.mockup.forms.rrect;rSize=0;fontSize=17;fontColor=#666666;whiteSpace=wrap;" vertex="1" parent="-4G_2_kfRSxBcvjL3f6l-464">
          <mxGeometry x="183.33333333333331" width="91.66666666666666" height="30" as="geometry" />
        </mxCell>
        <mxCell id="-4G_2_kfRSxBcvjL3f6l-468" value="" style="strokeColor=inherit;fillColor=inherit;gradientColor=inherit;strokeWidth=1;shadow=0;dashed=0;align=center;html=1;shape=mxgraph.mockup.forms.rrect;rSize=0;fontSize=17;fontColor=#666666;whiteSpace=wrap;" vertex="1" parent="-4G_2_kfRSxBcvjL3f6l-464">
          <mxGeometry x="275" width="91.66666666666666" height="30" as="geometry" />
        </mxCell>
        <mxCell id="-4G_2_kfRSxBcvjL3f6l-469" value="" style="strokeColor=inherit;fillColor=inherit;gradientColor=inherit;strokeWidth=1;shadow=0;dashed=0;align=center;html=1;shape=mxgraph.mockup.forms.rrect;rSize=0;fontSize=17;fontColor=#666666;whiteSpace=wrap;" vertex="1" parent="-4G_2_kfRSxBcvjL3f6l-464">
          <mxGeometry x="366.66666666666663" width="91.66666666666666" height="30" as="geometry" />
        </mxCell>
        <mxCell id="-4G_2_kfRSxBcvjL3f6l-470" value="" style="strokeColor=inherit;fillColor=inherit;gradientColor=inherit;strokeWidth=1;shadow=0;dashed=0;align=center;html=1;shape=mxgraph.mockup.forms.rrect;rSize=0;fontSize=17;fontColor=#666666;whiteSpace=wrap;" vertex="1" parent="-4G_2_kfRSxBcvjL3f6l-464">
          <mxGeometry x="458.3333333333333" width="91.66666666666666" height="30" as="geometry" />
        </mxCell>
        <mxCell id="-4G_2_kfRSxBcvjL3f6l-471" value="Menu Laboratorio Exámenes" style="text;html=1;strokeColor=none;fillColor=none;align=center;verticalAlign=middle;whiteSpace=wrap;rounded=0;" vertex="1" parent="1">
          <mxGeometry x="1859" y="880" width="110" height="20" as="geometry" />
        </mxCell>
        <mxCell id="-4G_2_kfRSxBcvjL3f6l-472" value="&lt;span style=&quot;font-size: 10px;&quot;&gt;Generar reporte en pdf&lt;/span&gt;" style="strokeWidth=1;shadow=0;dashed=0;align=center;html=1;shape=mxgraph.mockup.text.textBox;fontColor=#666666;align=left;fontSize=17;spacingLeft=4;spacingTop=-3;whiteSpace=wrap;strokeColor=#666666;mainText=" vertex="1" parent="1">
          <mxGeometry x="2034" y="1037.5" width="250" height="30" as="geometry" />
        </mxCell>
        <mxCell id="-4G_2_kfRSxBcvjL3f6l-473" value="&lt;font style=&quot;font-size: 10px;&quot;&gt;Descarga&lt;/font&gt;" style="strokeWidth=1;shadow=0;dashed=0;align=center;html=1;shape=mxgraph.mockup.forms.rrect;rSize=5;strokeColor=none;fontColor=#ffffff;fillColor=#66bbff;fontSize=16;fontStyle=1;" vertex="1" parent="1">
          <mxGeometry x="2194" y="1042.5" width="70" height="20" as="geometry" />
        </mxCell>
        <mxCell id="-4G_2_kfRSxBcvjL3f6l-474" value="Saldo" style="text;html=1;strokeColor=none;fillColor=none;align=left;verticalAlign=middle;whiteSpace=wrap;rounded=0;" vertex="1" parent="1">
          <mxGeometry x="2034" y="1007.5" width="187" height="30" as="geometry" />
        </mxCell>
        <mxCell id="-4G_2_kfRSxBcvjL3f6l-475" value="&lt;span style=&quot;font-size: 10px;&quot;&gt;Generar reporte en pdf&lt;/span&gt;" style="strokeWidth=1;shadow=0;dashed=0;align=center;html=1;shape=mxgraph.mockup.text.textBox;fontColor=#666666;align=left;fontSize=17;spacingLeft=4;spacingTop=-3;whiteSpace=wrap;strokeColor=#666666;mainText=" vertex="1" parent="1">
          <mxGeometry x="2034" y="1112.5" width="250" height="30" as="geometry" />
        </mxCell>
        <mxCell id="-4G_2_kfRSxBcvjL3f6l-476" value="Top 5 Pacientes" style="text;html=1;strokeColor=none;fillColor=none;align=left;verticalAlign=middle;whiteSpace=wrap;rounded=0;" vertex="1" parent="1">
          <mxGeometry x="2034" y="1082.5" width="187" height="30" as="geometry" />
        </mxCell>
        <mxCell id="-4G_2_kfRSxBcvjL3f6l-477" value="&lt;font style=&quot;font-size: 10px;&quot;&gt;Descarga&lt;/font&gt;" style="strokeWidth=1;shadow=0;dashed=0;align=center;html=1;shape=mxgraph.mockup.forms.rrect;rSize=5;strokeColor=none;fontColor=#ffffff;fillColor=#66bbff;fontSize=16;fontStyle=1;" vertex="1" parent="1">
          <mxGeometry x="2194" y="1117.5" width="70" height="20" as="geometry" />
        </mxCell>
        <mxCell id="-4G_2_kfRSxBcvjL3f6l-478" value="&lt;span style=&quot;font-size: 10px;&quot;&gt;Generar reporte en pdf&lt;/span&gt;" style="strokeWidth=1;shadow=0;dashed=0;align=center;html=1;shape=mxgraph.mockup.text.textBox;fontColor=#666666;align=left;fontSize=17;spacingLeft=4;spacingTop=-3;whiteSpace=wrap;strokeColor=#666666;mainText=" vertex="1" parent="1">
          <mxGeometry x="2034" y="1182.5" width="250" height="30" as="geometry" />
        </mxCell>
        <mxCell id="-4G_2_kfRSxBcvjL3f6l-479" value="Top 5 Tipos de exámenes" style="text;html=1;strokeColor=none;fillColor=none;align=left;verticalAlign=middle;whiteSpace=wrap;rounded=0;" vertex="1" parent="1">
          <mxGeometry x="2034" y="1152.5" width="187" height="30" as="geometry" />
        </mxCell>
        <mxCell id="-4G_2_kfRSxBcvjL3f6l-480" value="&lt;font style=&quot;font-size: 10px;&quot;&gt;Descarga&lt;/font&gt;" style="strokeWidth=1;shadow=0;dashed=0;align=center;html=1;shape=mxgraph.mockup.forms.rrect;rSize=5;strokeColor=none;fontColor=#ffffff;fillColor=#66bbff;fontSize=16;fontStyle=1;" vertex="1" parent="1">
          <mxGeometry x="2194" y="1187.5" width="70" height="20" as="geometry" />
        </mxCell>
      </root>
    </mxGraphModel>
  </diagram>
</mxfile>
